<svg width="30" height="29" viewBox="0 0 30 29" fill="none" xmlns="http://www.w3.org/2000/svg">
<path d="M10.0343 23.3508C10.0343 23.4707 9.89516 23.5666 9.71976 23.5666C9.52016 23.5846 9.38105 23.4887 9.38105 23.3508C9.38105 23.2308 9.52016 23.1349 9.69556 23.1349C9.87702 23.1169 10.0343 23.2128 10.0343 23.3508ZM8.15323 23.0809C8.11089 23.2008 8.23186 23.3388 8.41331 23.3747C8.57056 23.4347 8.75202 23.3747 8.78831 23.2548C8.8246 23.1349 8.70968 22.997 8.52823 22.943C8.37097 22.901 8.19556 22.961 8.15323 23.0809ZM10.8266 22.979C10.6512 23.0209 10.5302 23.1349 10.5484 23.2728C10.5665 23.3927 10.7238 23.4707 10.9052 23.4287C11.0806 23.3867 11.2016 23.2728 11.1835 23.1529C11.1653 23.0389 11.002 22.961 10.8266 22.979ZM14.8065 0C6.41734 0 0 6.31442 0 14.6317C0 21.2819 4.22177 26.9727 10.252 28.9756C11.0262 29.1135 11.2984 28.6398 11.2984 28.25C11.2984 27.8782 11.2802 25.8274 11.2802 24.5681C11.2802 24.5681 7.04637 25.4676 6.15726 22.7811C6.15726 22.7811 5.46774 21.0361 4.47581 20.5863C4.47581 20.5863 3.09073 19.6449 4.57258 19.6628C4.57258 19.6628 6.07863 19.7828 6.90726 21.21C8.23185 23.5247 10.4516 22.859 11.3165 22.4633C11.4556 21.5038 11.8488 20.8382 12.2843 20.4424C8.90323 20.0706 5.49194 19.5849 5.49194 13.8162C5.49194 12.1671 5.95161 11.3396 6.91935 10.2842C6.7621 9.89439 6.24798 8.2873 7.07661 6.21248C8.34073 5.8227 11.25 7.83156 11.25 7.83156C12.4597 7.49575 13.7601 7.32185 15.0484 7.32185C16.3367 7.32185 17.6371 7.49575 18.8468 7.83156C18.8468 7.83156 21.756 5.8167 23.0202 6.21248C23.8488 8.2933 23.3347 9.89439 23.1774 10.2842C24.1452 11.3456 24.7379 12.1731 24.7379 13.8162C24.7379 19.6029 21.1754 20.0646 17.7944 20.4424C18.3508 20.9161 18.8226 21.8156 18.8226 23.2248C18.8226 25.2457 18.8044 27.7463 18.8044 28.238C18.8044 28.6278 19.0827 29.1015 19.8508 28.9636C25.8992 26.9727 30 21.2819 30 14.6317C30 6.31442 23.1956 0 14.8065 0ZM5.87903 20.6823C5.8004 20.7422 5.81855 20.8802 5.92137 20.9941C6.01815 21.09 6.15726 21.132 6.23589 21.0541C6.31452 20.9941 6.29637 20.8562 6.19355 20.7422C6.09677 20.6463 5.95766 20.6043 5.87903 20.6823ZM5.22581 20.1965C5.18347 20.2745 5.24395 20.3704 5.36492 20.4304C5.46169 20.4904 5.58266 20.4724 5.625 20.3884C5.66734 20.3105 5.60685 20.2145 5.48589 20.1546C5.36492 20.1186 5.26815 20.1366 5.22581 20.1965ZM7.18548 22.3313C7.08871 22.4093 7.125 22.5892 7.26411 22.7031C7.40323 22.841 7.57863 22.859 7.65726 22.7631C7.73589 22.6851 7.6996 22.5052 7.57863 22.3913C7.44556 22.2534 7.26411 22.2354 7.18548 22.3313ZM6.49597 21.4498C6.39919 21.5098 6.39919 21.6657 6.49597 21.8036C6.59274 21.9416 6.75605 22.0015 6.83468 21.9416C6.93145 21.8636 6.93145 21.7077 6.83468 21.5698C6.75 21.4318 6.59274 21.3719 6.49597 21.4498Z" />
</svg>
