<svg width="80" height="103" viewBox="0 0 80 103" fill="none" xmlns="http://www.w3.org/2000/svg">
<g clip-path="url(#clip0_41_85)">
<path d="M17.1243 52.9629C17.068 63.1282 24.5242 69.1864 36.4204 66.4313V39.4895C24.3757 35.8228 17.1755 43.2432 17.1243 52.9629ZM36.784 0.533691H53.1662V78.0816C37.4651 80.6473 22.4195 82.2758 11.6653 76.2637C-2.18715 68.5155 -3.30354 43.9038 7.66062 32.9397C13.2169 27.3833 24.4115 23.4657 36.4204 26.0211V1.62959C36.3897 1.11237 36.3589 0.595144 36.784 0.533691ZM79.7444 17.6482H63.3622V0.533691H79.7444V17.6482Z" fill="#113527"/>
<path d="M79.7444 26.308C79.729 38.3732 79.729 47.038 79.729 61.6995C79.0326 76.105 79.1965 87.571 73.9167 94.4639C72.8771 95.8261 70.6699 97.8029 68.8212 99.1958C67.2696 100.363 64.3096 102.734 62.635 102.837C60.9399 102.944 56.5922 100.486 54.6257 99.5594C52.0396 98.3457 49.6532 96.7274 46.98 95.9234C53.2174 92.0622 59.1271 89.1637 61.5442 81.3592C63.6439 74.5687 63.3622 64.7312 63.3622 55.1446C63.3622 45.6758 63.4083 34.6706 63.4083 26.3131L79.7444 26.308Z" fill="#113527"/>
</g>
<defs>
<clipPath id="clip0_41_85">
<rect width="80" height="102.346" fill="white" transform="translate(0 0.514648)"/>
</clipPath>
</defs>
</svg>
