<svg width="80" height="57" viewBox="0 0 80 57" fill="none" xmlns="http://www.w3.org/2000/svg">
<path d="M43.74 26.0143H35.478V18.5898H43.74V26.0143ZM43.74 0.478516H35.478V8.0655H43.74V0.478516ZM53.5143 18.5773H45.2524V26.0018H53.5143V18.5773ZM33.9781 9.5654H25.7162V17.0774H33.9781V9.5654ZM43.74 9.5654H35.478V17.0774H43.74V9.5654ZM78.3376 22.0645C76.5377 20.8521 72.388 20.4147 69.2007 21.0146C68.7883 18.0148 67.1134 15.4025 64.0636 13.0527L62.3137 11.8902L61.1513 13.6401C58.8514 17.1149 58.2265 22.8395 60.6888 26.6142C59.6014 27.2017 57.464 28.0016 54.6392 27.9516H0.305428C-0.781998 34.3012 1.03038 42.5506 5.80505 48.2128C10.4422 53.6999 17.3918 56.4872 26.4786 56.4872C46.1523 56.4872 60.7138 47.4253 67.5259 30.9639C70.2007 31.0139 75.9753 30.9764 78.9376 25.3143C79.1251 25.0018 79.7625 23.6644 80 23.177L78.3376 22.0645ZM14.4545 18.5773H6.20503V26.0018H14.467V18.5773H14.4545ZM24.2163 18.5773H15.9544V26.0018H24.2163V18.5773ZM33.9781 18.5773H25.7162V26.0018H33.9781V18.5773ZM24.2163 9.5654H15.9544V17.0774H24.2163V9.5654Z" fill="#2B9AEE"/>
</svg>
