<svg width="80" height="104" viewBox="0 0 80 104" fill="none" xmlns="http://www.w3.org/2000/svg">
<g clip-path="url(#clip0_41_88)">
<path d="M23.9066 63.8117C20.8598 61.4167 17.6088 59.1216 15.3879 55.8875C10.7126 50.1844 7.11385 43.5829 4.65354 36.6445C3.16604 32.1324 2.65667 27.2952 0.737926 22.9582C-1.26644 19.8072 1.08324 16.3652 4.53698 15.364C6.07354 15.068 8.77697 13.6185 5.51354 14.6558C2.5873 16.7998 2.30542 12.7073 5.30541 12.4482C7.35291 12.1768 8.10666 10.5028 7.40572 8.99583C5.20698 7.56256 12.7354 5.99002 8.94697 3.85198C5.00323 -0.400991 14.4657 -1.21973 12.1307 3.61123C11.5726 7.32555 18.7451 2.92894 17.0794 7.21907C18.7716 9.27967 23.4144 7.68902 23.2979 10.578C25.7622 10.7473 26.6082 12.8179 28.9191 12.9771C31.3182 14.0594 35.6628 14.9106 36.4778 17.6101C34.0997 19.4909 28.5944 13.7247 28.3285 18.9316C29.0479 26.6251 28.8644 34.5499 31.6803 41.8758C33.0122 46.3111 36.2428 49.8025 39.1588 53.2577C41.9503 56.6407 45.7306 59.0238 49.5847 61.0289C52.9644 62.6214 56.6081 63.6768 60.2925 64.3407C61.7862 63.1991 64.424 58.9542 66.7534 60.7428C66.8659 62.7566 62.1296 64.9493 66.5312 64.7266C69.1181 63.9466 70.9102 66.7232 73.0393 64.218C75.0012 66.5399 81.1924 62.7357 79.7971 67.4811C77.909 68.6983 75.1565 67.9629 73.2665 69.6375C70.1503 68.0815 67.669 71.028 64.2178 70.6564C60.3865 71.3422 56.4872 71.6182 52.6031 71.6238C46.2294 71.1214 39.7213 70.9094 33.6582 68.6917C30.2416 67.7 26.9088 65.7558 23.9066 63.8117ZM29.2891 66.1437C32.6241 67.5832 35.8857 69.1023 39.5413 69.5617C45.3406 70.3663 51.3297 71.6076 57.1493 70.4766C54.5156 69.2884 51.7915 70.9381 49.1678 69.6272C46.0209 70.303 42.6434 69.4536 39.4428 69.0349C35.8053 67.4161 31.8785 66.3032 28.4719 64.1995C24.2132 62.646 30.6729 66.1927 31.8232 66.4809C34.4838 67.9891 28.8966 65.7065 28.1075 65.0798C25.8788 63.8301 25.5951 64.0915 27.8875 65.3596C28.3491 65.6294 28.805 65.9132 29.2891 66.1437ZM22.9422 61.6618C26.1751 62.8584 22.9279 59.3911 21.4485 59.5915C20.7923 58.454 18.9413 57.7351 20.2469 57.1247C17.8991 57.9397 17.7866 54.0271 16.6835 54.5869C14.1985 53.8029 15.7166 51.0256 12.7557 49.3191C12.4857 47.5218 9.81509 45.9639 8.96509 43.2541C8.58916 41.8658 5.94698 37.8823 7.56947 41.5898C8.95072 45.1589 11.3804 48.2181 13.4035 51.2707C14.9729 54.1779 16.8285 57.2187 19.6873 59.032C20.6519 59.9569 21.5816 61.3717 22.9422 61.6618ZM13.6326 51.4462C13.7445 50.9582 14.2232 52.5017 13.6326 51.4462V51.4462ZM26.8147 63.0951C25.7847 62.691 27.5297 62.7747 26.8147 63.0951V63.0951ZM28.5679 63.7346C27.7669 64.2286 28.3863 62.8521 28.5679 63.7346V63.7346ZM30.7647 64.6495C29.1522 64.0219 31.8088 63.6543 30.7647 64.6495V64.6495ZM34.5288 66.7457C32.4953 66.3928 35.1641 65.8086 34.5288 66.7457V66.7457ZM27.3013 61.7111C25.2026 61.6965 28.9232 60.6613 27.3013 61.7111V61.7111ZM28.9482 62.5318C28.3616 62.7806 28.901 61.9781 28.9482 62.5318V62.5318ZM37.181 67.6669C38.505 68.5022 44.9116 69.4964 40.9003 68.0097C40.2275 68.1509 33.4619 66.0965 37.181 67.6669ZM24.1113 57.4944C22.0551 56.8799 23.9826 56.9395 24.1113 57.4944V57.4944ZM27.9425 59.7286C25.8726 59.1915 28.9416 59.0323 27.9425 59.7286V59.7286ZM31.1669 61.703C28.846 61.1619 32.5994 61.1641 31.1669 61.703V61.703ZM22.5501 55.7976C24.1032 56.9876 28.8157 55.9506 24.9285 55.0872C23.161 54.1457 19.1763 53.5009 21.8926 55.6549L22.5501 55.7976ZM33.3519 62.3847C30.6378 61.7555 33.9994 61.284 33.3519 62.3847V62.3847ZM30.0697 59.7789C33.8666 60.8512 26.876 57.3776 29.1322 59.3829L29.6332 59.6096L30.0697 59.7789ZM36.6503 63.5791C33.401 63.0832 40.2466 63.6134 36.6503 63.5791V63.5791ZM21.1669 53.7186C20.2801 53.7741 21.0257 53.0491 21.1669 53.7186V53.7186ZM42.7334 66.989C41.5603 67.8895 42.8294 65.7805 42.7334 66.989V66.989ZM27.3054 57.4738C26.1816 57.4472 27.0866 56.8368 27.3054 57.4738V57.4738ZM21.5079 53.2983C18.6798 52.3896 23.5722 53.174 21.5079 53.2983V53.2983ZM14.6398 48.8629C12.3941 47.0849 14.3826 47.8731 14.6398 48.8629V48.8629ZM32.6694 60.296C32.2913 59.8647 32.4913 60.3897 32.6694 60.296V60.296ZM43.8897 67.1772C43.2788 67.4258 43.8553 66.5174 43.8897 67.1772V67.1772ZM31.6763 59.2708C29.915 59.0132 31.8788 58.4215 31.6763 59.2708V59.2708ZM23.3163 53.9762C20.8538 52.9388 24.8532 53.8125 23.3163 53.9762V53.9762ZM37.4575 62.7566C35.1238 62.2948 39.8522 61.8089 37.4575 62.7566V62.7566ZM30.1029 57.7682C32.8613 58.123 26.8191 55.8916 29.496 57.5678L30.1029 57.7682ZM39.6903 63.6587C42.2675 62.1214 41.4175 67.2628 44.0619 64.0937C46.6691 62.1908 41.8097 66.4459 45.0222 64.4328C47.3475 62.8787 50.7803 65.1697 52.9487 65.9151C54.5075 65.8395 56.024 67.2628 57.6237 66.3966C60.7012 65.5675 51.604 65.1679 53.9884 63.6993C51.1728 64.5187 49.0928 62.7235 47.7072 60.9205C44.5478 60.1914 40.8963 58.5786 39.3188 55.7832C38.675 54.7359 40.2469 55.9325 38.7631 54.2172C36.8606 52.5263 35.9106 50.6047 34.6332 48.5488C33.1066 47.736 32.9269 45.3409 32.7735 48.4695C32.786 46.4947 30.9304 45.1655 30.4766 45.7169C30.4685 43.8156 32.4632 44.7692 31.0672 43.3625C30.7672 41.3918 29.7779 39.3381 29.4813 37.1123C29.02 36.0403 29.4157 33.7433 27.9041 36.1708C27.3541 38.7376 27.7222 33.0183 28.5785 34.903C29.7022 32.9795 28.1735 33.2059 28.1122 33.4717C28.8441 31.8485 28.5763 29.545 27.9204 30.4231C28.3107 28.7016 28.5375 24.0892 27.3382 24.9079C28.0654 23.1071 28.7175 16.6705 25.5579 19.1255C24.2788 19.1436 22.0619 19.5892 21.0157 20.1098C24.2994 21.919 20.6844 20.763 19.346 20.4751C19.1723 22.1494 17.8482 21.4266 16.1929 21.4428C18.8373 21.7694 14.9054 24.1438 13.3916 23.2214C11.4216 24.1607 15.0898 26.5089 13.4304 27.2355C13.6351 28.3281 10.4142 26.8399 10.6657 29.3676C8.75478 28.5626 10.4042 32.365 11.3604 31.0788C14.6116 31.9588 13.6491 33.9619 13.7307 35.8667C13.2013 36.9752 11.1151 33.2593 13.2666 33.4311C11.5685 30.676 11.3891 32.4343 9.97884 33.7146C9.65197 33.8067 13.5754 35.5357 11.1132 36.3894C13.2791 36.7245 13.3426 38.6192 13.7841 39.818C15.0857 41.1732 14.8176 38.3207 16.3773 39.9507C15.3898 38.4987 11.1538 35.8601 14.5648 36.7063C14.546 35.2462 13.9473 34.0678 14.9935 34.0962C16.0298 32.2239 13.9085 38.7151 16.2423 36.3344C16.8876 36.0528 17.0494 34.46 18.2101 36.4856C19.8957 38.1437 18.8191 39.3437 16.4404 37.8249C16.8654 39.2684 19.6219 39.7827 19.1029 42.0394C19.6523 44.0242 20.421 43.2928 21.091 43.1786C21.616 45.1061 21.9151 43.6891 21.9394 42.7701C24.3444 43.2853 23.7804 44.7061 24.5341 45.6985C26.1913 46.4454 22.1619 40.6324 25.0066 43.9505C27.9997 46.6518 26.1304 47.7788 23.4435 47.3463C25.1435 47.2089 25.6907 49.6436 27.8185 49.5577C29.7575 50.4804 31.0716 54.0211 27.7285 52.5466C26.5697 51.5012 22.4641 50.2128 25.8179 52.1997C28.9116 53.633 31.3719 54.4886 34.3572 56.2878C36.4928 57.811 37.416 59.5562 38.2253 59.9019C36.4294 60.7591 32.8147 59.2178 35.4994 58.7462C33.8238 58.4418 31.94 57.5946 33.5438 59.6793C34.9088 60.8187 38.3766 60.6979 39 60.8265C38.4728 61.9866 37.5678 62.0787 39.0203 62.1683C37.3997 63.032 39.5413 63.1669 39.6903 63.6587ZM36.376 54.305C35.3891 53.2739 35.1338 51.3444 36.2003 53.0222C36.7481 53.243 37.9519 56.1776 36.376 54.305ZM47.1719 61.1575C47.19 61.6246 47.7869 61.1169 47.1719 61.1575V61.1575ZM34.8194 51.7772C34.78 50.2191 35.1744 52.9794 34.8194 51.7772V51.7772ZM33.7463 50.3355C32.5041 47.9405 35.3094 51.0135 33.7463 50.3355V50.3355ZM20.7416 41.3678C21.1013 42.6127 21.4713 41.1732 20.7416 41.3678V41.3678ZM31.0919 46.9725C31.5394 45.2919 31.6172 48.3817 31.0919 46.9725V46.9725ZM23.7804 41.892C23.2657 40.9653 24.8576 42.7623 23.7804 41.892V41.892ZM30.0538 43.9014C28.8788 41.2716 30.8875 42.4638 30.3154 44.3323L30.0538 43.9014ZM19.2338 36.6914C18.7088 35.828 17.8401 33.2959 18.1201 32.5224C18.3713 33.782 20.7991 37.9413 19.3091 34.2457C17.6644 31.1481 21.2772 35.25 21.6491 36.0241C21.8229 36.7919 20.6335 35.8139 21.4385 37.6166C19.9694 35.5644 20.5719 38.7501 19.2338 36.6914ZM15.8907 34.3884C16.0276 32.3812 16.6551 35.7646 15.8907 34.3884V34.3884ZM17.3948 34.9068C18.1119 33.3923 18.6104 37.0183 17.3948 34.9068V34.9068ZM13.7757 32.1099C12.531 30.8721 11.6298 29.733 13.8348 31.3417C14.6829 31.3745 11.947 28.7509 14.0395 30.5086C16.2379 30.9093 15.1241 34.113 13.7757 32.1099ZM15.676 32.0609C16.0604 32.7653 16.3998 31.3442 15.676 32.0609V32.0609ZM16.8469 32.4343C15.7495 30.3822 18.1773 33.2962 16.8469 32.4343V32.4343ZM14.5216 30.2151C10.9029 26.9945 19.0682 31.8972 15.1123 30.8109L14.5216 30.2151ZM24.8919 36.2342C23.3247 35.2968 24.4751 29.629 25.0107 33.5044C26.5332 33.012 24.9263 35.5076 26.0607 35.4829C25.8832 37.0567 25.3744 37.6231 24.8919 36.2342ZM28.7275 38.5006C28.8807 36.7919 29.0504 39.6691 28.7275 38.5006V38.5006ZM28.0616 37.8411C28.0779 38.7007 28.2332 37.1123 28.0616 37.8411V37.8411ZM15.2304 29.1572C12.9054 25.9512 21.9882 32.3994 16.7204 29.97C16.1704 29.8251 15.5066 29.7739 15.2304 29.1572ZM22.6176 33.0698C22.3972 30.3703 23.1082 33.5163 22.6176 33.0698V33.0698ZM28.2247 36.6648C28.2579 37.6822 28.6579 35.1276 28.2247 36.6648V36.6648ZM15.5882 27.934C16.9698 27.638 21.3138 30.3578 17.3251 28.71C16.8819 28.2198 15.9357 28.4427 15.5882 27.934ZM27.4541 33.8432C27.6019 31.0829 28.2804 32.1954 27.4604 34.2395L27.4541 33.8432ZM16.616 26.9726C17.1798 26.1473 15.1198 23.242 16.9119 25.9309C17.6869 26.5454 19.1535 26.9601 17.8582 27.2193C19.8954 29.0145 17.3619 27.7055 16.616 26.9726ZM26.8675 32.9817C27.2113 34.8234 27.2563 29.8373 26.8675 32.9817V32.9817ZM15.4388 24.0689C15.6676 24.6422 15.8701 23.8847 15.4388 24.0689V24.0689ZM18.1138 25.6595C18.8019 24.2157 19.3826 27.2683 18.1138 25.6595V25.6595ZM25.656 29.8513C25.6497 29.298 25.7988 30.6579 25.656 29.8513V29.8513ZM25.2185 28.8858C24.1722 26.3047 26.1935 30.2516 25.2185 28.8858V28.8858ZM24.5766 27.1927C24.4016 26.1267 25.1735 28.5323 24.5766 27.1927V27.1927ZM25.6229 25.4941C24.9038 24.2297 26.5307 19.9196 26.7125 22.5925C25.9541 24.6753 26.4938 25.8394 27.0207 23.0459C27.9979 20.8489 26.8104 27.3851 25.6229 25.4941ZM26.6979 19.0846C26.7675 19.5477 27.011 18.7005 26.6979 19.0846V19.0846ZM24.9022 54.4355C24.4769 54.0639 24.9569 54.6706 24.9022 54.4355V54.4355ZM28.6007 56.3041C30.6582 56.833 30.6482 55.9852 28.7882 55.732C27.7891 54.8033 24.6319 53.8169 27.4582 55.6177C27.6444 56.0917 28.235 56.0792 28.6007 56.3041ZM21.2976 51.4562C22.4294 52.3021 25.566 53.8494 22.9116 51.7794C23.8066 50.7396 21.1991 50.1866 22.0638 49.4906C19.8629 48.1444 20.3263 48.2649 21.8697 48.308C19.2254 47.1255 22.2516 47.2154 22.1088 46.6093C21.0891 46.4089 17.0429 44.812 19.4235 46.7399C17.0041 45.5083 18.8469 47.1992 18.1157 47.0215C15.6407 46.3477 20.3188 48.9044 17.7232 48.2693C19.1416 49.3922 21.5426 51.1483 18.3219 49.4575C17.8991 50.0679 20.6276 50.9932 21.2976 51.4562ZM25.1654 53.678C22.8582 51.8259 29.8675 55.1912 25.1654 53.678V53.678ZM44.9666 65.6637C44.3247 66.46 45.0278 64.7307 44.9666 65.6637V65.6637ZM47.0019 66.5193C48.0869 65.4701 47.0469 68.1936 48.8 66.2623C48.8181 64.8796 48.7469 64.0634 46.7853 65.7433C46.2434 66.0437 46.0028 67.3153 47.0019 66.5193ZM14.6951 46.2462C12.3591 44.9428 14.3616 44.9372 14.6951 46.2462V46.2462ZM16.8669 47.6688C13.9876 46.4582 16.0598 46.3317 16.8669 47.6688V47.6688ZM29.2319 55.1197C30.44 56.192 34.776 55.9059 30.6975 55.2527C30.0944 54.3602 26.8638 54.5748 29.2319 55.1197ZM46.2272 65.6094C44.4272 66.3035 48.0847 64.0512 46.2272 65.6094V65.6094ZM50.0916 68.2614C49.2906 68.48 50.1034 67.7612 50.0916 68.2614V68.2614ZM50.0978 67.561C48.1053 67.6897 52.1553 65.3846 50.0978 67.561V67.561ZM9.34915 41.774C7.59603 39.2747 8.26009 38.1515 6.56822 36.1096C6.24697 34.5477 3.66667 31.007 5.23385 34.7579C6.66822 36.953 7.09291 40.3504 9.34915 41.774ZM49.4519 66.8687C47.8991 65.8049 53.2387 64.4244 49.4519 66.8687V66.8687ZM52.3415 67.9997C51.1419 67.6606 54.2378 66.3741 52.3415 67.9997V67.9997ZM14.051 43.4827C12.6495 43.3787 14.5929 42.6761 14.051 43.4827V43.4827ZM51.7384 67.2278C53.5734 66.0459 51.3156 66.2273 51.4056 67.3359L51.7384 67.2278ZM26.8329 51.5421C25.8625 51.6096 26.7697 50.7418 26.8329 51.5421V51.5421ZM28.3716 52.4264C27.6197 52.5816 27.8813 51.4381 28.3716 52.4264V52.4264ZM54.6831 68.0266C57.035 66.3313 53.259 67.7015 54.1906 68.3492L54.6831 68.0266ZM53.7822 67.5916C51.7609 68.302 55.6987 65.9885 53.7822 67.5916V67.5916ZM58.3834 70.6521C56.8206 70.3745 59.6693 69.7924 58.3834 70.6521V70.6521ZM15.2304 42.901C16.9529 43.2866 22.1185 47.1417 19.0719 43.1686C17.511 42.707 18.4469 38.8947 16.8551 39.5685C17.9238 41.3531 17.7332 42.1103 15.4895 40.9877C12.672 39.6113 13.906 41.6678 14.4582 42.2355C13.7057 42.407 15.451 42.8869 15.2301 42.9006L15.2304 42.901ZM7.37728 36.7042C7.68572 35.4276 4.53479 29.688 5.88979 33.827C6.37791 34.6948 6.32729 36.3382 7.37728 36.7042ZM21.7916 45.5839C20.9029 44.8429 21.7488 45.4777 21.7916 45.5839V45.5839ZM23.976 46.0929C21.561 45.5433 23.976 44.7408 23.976 46.0929V46.0929ZM42.9191 58.0234C41.491 58.0028 42.5575 57.1 42.9191 58.0234V58.0234ZM43.8284 58.6866C43.3028 58.7868 43.6931 58.1701 43.8284 58.6866V58.6866ZM51.3359 63.4136C50.4347 63.3446 52.0575 62.8809 51.3359 63.4136V63.4136ZM11.2988 37.7046C9.0854 37.1348 13.3645 36.9059 11.2988 37.7046V37.7046ZM41.2513 56.5589C39.9335 56.892 41.2272 55.2236 41.2513 56.5589V56.5589ZM10.4832 35.8033C9.25509 35.5098 11.8095 35.3568 10.4832 35.8033V35.8033ZM14.3332 37.6675C13.9266 37.8352 14.3104 37.2288 14.3332 37.6675V37.6675ZM61.3018 66.4478C63.0081 66.1028 66.8968 67.3159 67.524 65.9969C65.4521 65.9457 60.3578 64.5346 60.1165 66.3313L60.5703 66.4032L61.3022 66.4478H61.3018ZM15.557 37.976C14.5007 37.9251 15.5882 36.622 15.557 37.976V37.976ZM5.43448 30.958C3.68511 30.5676 4.97479 28.3787 5.43448 30.958V30.958ZM7.8476 31.5644C5.63823 30.819 7.87853 30.7353 7.8476 31.5644V31.5644ZM9.22697 32.2423C8.82853 31.9194 8.91634 32.6482 9.22697 32.2423V32.2423ZM17.9094 37.8064C16.941 37.5288 18.3185 37.4305 17.9094 37.8064V37.8064ZM8.30947 30.715C5.51198 30.4231 8.07478 28.7672 8.30947 30.715V30.715ZM3.35792 27.505C2.87542 27.8438 3.28823 26.6066 3.35792 27.505V27.505ZM4.09542 26.9501C3.46198 27.0844 3.97511 25.8838 4.09542 26.9501V26.9501ZM8.16259 29.3754C9.88322 28.7016 5.02948 27.9787 7.81103 29.249L8.16259 29.3754ZM62.6081 62.9808C61.2103 62.6685 63.7093 61.9722 62.6081 62.9808V62.9808ZM69.1859 66.3866C68.074 66.5583 69.6274 65.0842 69.1859 66.3866V66.3866ZM8.57822 27.2458C7.21353 27.4969 8.76041 25.9843 8.57822 27.2458V27.2458ZM2.7898 23.3707C2.47917 21.5902 2.52198 18.4638 5.49541 19.5196C1.52667 20.3077 8.24384 24.4502 7.39572 21.1793C9.06509 21.2614 10.6613 20.1934 9.78447 21.8122C13.0745 21.4509 15.3532 18.6006 18.5304 19.0009C21.0047 18.6724 23.7104 18.4251 26.3772 17.4287C28.5697 17.2713 30.6804 14.9128 29.4794 13.5142C26.4897 13.2613 23.3588 13.6348 20.0548 14.2924C16.3932 15.0518 13.0666 16.4972 9.37165 17.1183C5.76885 17.6023 10.0951 18.4495 9.06291 18.6393C7.18478 19.2907 11.3048 19.7297 8.81978 20.4177C7.28541 20.126 5.68729 19.5992 6.34322 17.982C2.89386 18.4311 -0.138635 19.8603 2.58761 23.3682L2.79011 23.3701L2.7898 23.3707ZM11.1048 19.1396C11.912 16.1628 15.4366 21.5902 12.4288 19.5358C12.071 19.266 11.4782 19.0475 11.1048 19.1396ZM11.2616 17.6957C11.881 18.1841 12.4288 16.8282 11.2616 17.6957V17.6957ZM12.7432 17.7207C12.8501 16.3505 16.1379 18.4454 13.2851 18.2128L12.7432 17.7207ZM14.7704 16.906C14.9854 17.6735 15.5123 16.0398 14.7704 16.906V16.906ZM15.2898 16.5591C16.5238 15.0786 22.2719 15.6132 18.0644 16.4136C16.9363 15.5642 16.0723 16.9138 15.2898 16.5591ZM22.7929 15.4031C22.6072 11.3578 26.5222 16.8385 22.7929 15.4031V15.4031ZM24.9226 15.3906C25.7007 13.3531 27.9444 14.5722 25.2841 14.9803C25.341 15.1989 25.2044 16.0342 24.9226 15.3906ZM7.73916 26.2004C5.27041 24.9654 10.0642 24.7771 7.73916 26.2004V26.2004ZM9.45947 26.6763C7.68572 26.325 10.2751 25.8107 9.45947 26.6763V26.6763ZM4.39198 23.0847C2.81855 22.6968 5.7201 22.0636 4.39198 23.0847V23.0847ZM73.0681 66.015C72.0524 66.5477 73.1068 64.8306 73.0681 66.015V66.015ZM66.0896 61.2552C65.1928 61.3739 66.2878 59.8938 66.0896 61.2552V61.2552ZM74.9868 66.4747C76.8446 66.4809 80.6162 65.8964 76.5743 65.8985C75.939 65.9969 72.8781 65.9766 74.9868 66.4747ZM10.972 25.8407C12.476 25.7386 13.3238 24.1844 10.6795 24.2725C6.5826 23.85 14.2941 25.6755 10.1545 25.1528C9.59884 25.5203 10.9388 25.9428 10.972 25.8407ZM12.296 26.5108C11.8298 27.0229 12.1385 25.5468 12.296 26.5108V26.5108ZM13.8673 22.3246C12.9641 22.1082 14.5191 21.5159 13.8673 22.3246V22.3246ZM8.86478 13.9717C11.5501 13.0611 15.2201 12.036 16.4873 14.4213C15.1976 12.8716 15.9663 11.344 17.1841 13.6126C18.9066 15.9058 19.7685 12.5693 18.6488 11.7993C19.9263 13.3837 21.3769 14.1334 19.5029 11.8998C21.5404 9.45142 15.4263 12.2202 14.037 12.1915C13.3688 12.4913 7.13385 13.78 8.86478 13.9717ZM10.4382 10.9624C11.9691 9.80895 15.7329 11.6503 13.3176 9.81457C13.0807 9.60661 8.02947 11.2072 10.4382 10.9624ZM16.0191 11.1929C17.8091 11.2379 15.247 8.78755 17.3801 9.89826C17.0307 8.75508 14.8954 8.54056 13.8513 8.08341C13.2607 9.12885 15.0523 11.2072 16.0191 11.1929ZM11.417 6.13085C10.3301 6.55771 12.0363 5.29181 11.417 6.13085V6.13085ZM13.6982 6.67574C16.5851 6.29416 12.962 5.43451 13.1151 6.64545L13.6982 6.67574ZM9.43884 3.34768C7.40541 0.695352 13.2623 3.79296 11.196 1.01573C9.45728 -0.36633 7.78791 2.5739 9.43884 3.34768ZM35.5232 17.3859C36.4557 15.7356 31.6757 15.1601 34.896 16.8014C35.1922 16.8997 35.1253 17.4999 35.5232 17.3859ZM16.5963 78.8451C16.3901 79.6589 16.2623 81.0244 16.2144 82.941C16.2144 83.3176 16.0448 83.5062 15.7045 83.5062C15.3641 83.5062 15.1273 83.3417 14.9932 83.0141C14.6288 82.1279 14.2838 81.5099 13.9545 81.1571C13.5663 80.7449 13.0501 80.4957 12.406 80.4108C11.7138 80.3015 9.98946 80.2469 7.2326 80.2469C6.60135 80.2469 6.18791 80.314 5.99416 80.4479C5.8726 80.5323 5.81198 80.7146 5.81198 80.9941V89.2405C5.81198 89.5197 5.98791 89.6527 6.33947 89.6412C7.42103 89.6287 8.98759 89.555 11.0395 89.4226C11.4407 89.3733 11.7113 89.243 11.8507 89.0304C11.9913 88.8181 12.1279 88.2697 12.2607 87.3832C12.3451 86.8977 12.6313 86.7094 13.117 86.8193C13.5295 86.9042 13.707 87.0925 13.646 87.3832C13.3054 89.0345 13.1954 91.1825 13.317 93.8283C13.3298 94.143 13.1295 94.3135 12.716 94.3379C12.3754 94.3744 12.1629 94.192 12.0785 93.7914C11.7635 92.2748 11.1763 91.4641 10.321 91.3605C9.46478 91.2581 8.0701 91.2062 6.13979 91.2062C5.92104 91.2062 5.81198 91.2846 5.81198 91.4426V99.6347C5.81198 100.242 6.03604 100.655 6.4851 100.873C6.83822 101.055 7.59697 101.219 8.76228 101.364C9.35822 101.425 9.61853 101.687 9.54665 102.147C9.47322 102.547 8.93947 102.705 7.9426 102.621C5.06448 102.389 2.68948 102.402 0.8198 102.658C0.296989 102.73 0.0366774 102.517 0.0366774 102.02C0.0366774 101.704 0.296989 101.522 0.8198 101.474C2.01011 101.34 2.6048 100.296 2.6048 98.3429V82.7587C2.6048 81.9587 2.46167 81.3429 2.17698 80.9117C1.89105 80.4807 1.35949 80.0889 0.583239 79.7373C0.0969898 79.5187 -0.0848848 79.2217 0.0363649 78.8451C0.0969898 78.615 0.19449 78.487 0.327302 78.4632C0.448864 78.4264 0.771363 78.4507 1.29261 78.5363C2.05823 78.6575 3.86229 78.7183 6.70385 78.7183C10.0567 78.7183 12.9526 78.645 15.3945 78.4998C16.2079 78.4504 16.6154 78.5176 16.6154 78.6996C16.6154 78.749 16.6091 78.7967 16.5963 78.8451ZM28.411 101.954C28.411 102.44 28.1375 102.652 27.5913 102.592C25.9163 102.434 23.8388 102.457 21.3613 102.664C20.8629 102.713 20.5569 102.7 20.4407 102.628C20.3251 102.555 20.2682 102.355 20.2682 102.026C20.2682 101.736 20.5985 101.49 21.2604 101.289C21.9232 101.09 22.2532 100.492 22.2532 99.497V83.0216C22.2532 82.038 22.1104 81.316 21.8257 80.8545C21.5397 80.3933 21.0388 80.0355 20.3226 79.7813C19.9457 79.647 19.7569 79.459 19.7569 79.2161C19.7569 78.852 20.0304 78.5791 20.5769 78.397C21.4032 78.1301 22.2597 77.7182 23.1466 77.1592C23.8754 76.7221 24.3372 76.5044 24.5307 76.5044C24.9797 76.5044 25.2054 76.8129 25.2054 77.4322C25.2054 77.3844 25.181 77.9911 25.1316 79.2526C25.0963 80.4539 25.0838 81.637 25.0963 82.803L25.1682 99.0592C25.1682 99.7999 25.3507 100.337 25.7151 100.671C26.0794 101.005 26.7057 101.226 27.5913 101.335C28.1375 101.395 28.411 101.602 28.411 101.954V101.954ZM44.8888 100.881C44.8888 101.136 44.4244 101.521 43.4956 102.036C42.5659 102.552 41.8219 102.81 41.2638 102.81C40.7894 102.81 40.3709 102.58 40.0066 102.119C39.6422 101.658 39.3863 101.427 39.241 101.427C39.1319 101.427 38.555 101.676 37.5097 102.173C36.4663 102.671 35.415 102.92 34.3585 102.92C33.3628 102.92 32.5303 102.628 31.8625 102.047C31.1338 101.403 30.7694 100.529 30.7694 99.4246C30.7694 97.3249 33.1744 95.8205 37.9844 94.9102C38.8094 94.7522 39.2294 94.4184 39.2406 93.9088L39.2778 92.7435C39.351 90.7534 38.4703 89.7586 36.636 89.7586C36.1135 89.7586 35.6188 90.2251 35.1503 91.1594C34.6838 92.0949 34.0119 92.598 33.1375 92.6713C32.1419 92.7675 31.6435 92.3491 31.6435 91.4148C31.6435 90.8318 32.3847 90.1533 33.8663 89.3758C35.4213 88.5629 36.9156 88.1558 38.3488 88.1558C40.8138 88.1558 42.0344 89.3277 42.0103 91.6699L41.9369 99.1695C41.9256 99.9585 42.2597 100.353 42.9391 100.353C43.0731 100.353 43.3284 100.323 43.7044 100.262C44.0816 100.201 44.3003 100.171 44.3613 100.171C44.7128 100.171 44.8888 100.408 44.8888 100.881ZM39.2778 96.731C39.2903 96.4272 39.2194 96.2261 39.0675 96.1302C38.9156 96.0331 38.6769 96.0138 38.3488 96.0747C35.4213 96.5967 33.9575 97.5498 33.9575 98.9331C33.9575 100.329 34.7166 101.026 36.2347 101.026C36.8422 101.026 37.4685 100.912 38.111 100.681C38.865 100.413 39.241 100.092 39.241 99.7156L39.2778 96.731ZM58.4337 98.7866C58.4337 100.073 57.9375 101.096 56.9484 101.855C55.9587 102.613 54.6078 102.992 52.8947 102.992C51.7534 102.992 50.6109 102.871 49.4697 102.628C48.4853 102.41 47.9147 102.21 47.7569 102.028C47.6594 101.857 47.6112 101.027 47.6112 99.5335C47.6112 98.8903 47.7569 98.5562 48.0487 98.5324C48.34 98.4956 48.5894 98.6539 48.7956 99.0052C49.7062 100.596 51.1762 101.391 53.2047 101.391C54.9162 101.391 55.7728 100.795 55.7728 99.6057C55.7728 99.0848 55.579 98.6474 55.1897 98.2958C54.7644 97.8951 53.9397 97.4277 52.7125 96.8937C50.9387 96.1053 49.7544 95.4136 49.1597 94.8181C48.5156 94.1874 48.1941 93.338 48.1941 92.2695C48.1941 90.9583 48.6981 89.9397 49.7062 89.2115C50.6412 88.507 51.8925 88.1558 53.4587 88.1558C54.4431 88.1558 55.3415 88.2338 56.1562 88.3921C57.0306 88.5501 57.4859 88.7437 57.5225 88.9748C57.6187 89.6537 57.82 90.6373 58.1237 91.9244C58.1603 92.0812 57.9893 92.2089 57.6137 92.306C57.2125 92.3909 56.9456 92.3238 56.8115 92.1062C55.8525 90.5399 54.6381 89.7573 53.1678 89.7573C51.504 89.7573 50.6719 90.2913 50.6719 91.3592C50.6719 91.9544 50.8969 92.4272 51.3459 92.7788C51.7472 93.0823 52.6881 93.5563 54.17 94.1999C55.7247 94.8671 56.7812 95.4679 57.3406 96.0016C58.0693 96.6929 58.4337 97.6222 58.4337 98.7866ZM79.8671 101.973C79.8671 102.397 79.5812 102.622 79.0105 102.646C78.1602 102.659 77.048 102.719 75.6768 102.828C74.9962 102.962 74.5102 102.878 74.2193 102.574C72.2999 100.511 70.6718 98.3504 69.3356 96.0925C69.2268 95.8988 69.0874 95.8017 68.9168 95.8017C68.7106 95.8017 68.3528 95.9838 67.8428 96.3482C67.2709 96.6629 66.9862 97.1126 66.9862 97.694C66.9862 98.1075 66.9975 98.7017 67.0228 99.4795C67.0471 100.255 67.2406 100.765 67.6049 101.008C67.8603 101.179 68.4503 101.311 69.3721 101.409C69.9431 101.482 70.229 101.694 70.229 102.046C70.229 102.325 70.1834 102.498 70.0921 102.564C70.0015 102.631 69.7609 102.646 69.3721 102.61C68.1578 102.501 66.1056 102.562 63.215 102.792C62.4862 102.852 62.0912 102.761 62.0306 102.518C62.0065 102.434 61.9937 102.312 61.9937 102.154C61.9937 101.779 62.3646 101.493 63.1062 101.3C63.774 101.129 64.1078 100.346 64.1078 98.9509V83.0397C64.1078 82.0448 64.0109 81.3532 63.8156 80.965C63.5487 80.467 62.9893 80.0785 62.1393 79.7994C61.7393 79.6667 61.5384 79.4784 61.5384 79.2355C61.5384 78.8826 61.8243 78.6097 62.3946 78.4164C63.3128 78.1095 64.1881 77.6873 64.9996 77.1599C65.6681 76.7236 66.0815 76.5047 66.2384 76.5047C66.7371 76.5047 66.9862 76.8195 66.9862 77.4518C66.9862 77.366 66.9799 77.9677 66.9671 79.2536C66.954 80.443 66.9482 81.6325 66.9496 82.8221L66.9862 94.2177C66.9862 94.5337 67.0709 94.6904 67.2406 94.6904C67.4228 94.6904 67.7024 94.5337 68.0793 94.2177C69.0874 93.4286 70.3262 92.3972 71.7952 91.1228C72.0874 90.8196 72.2327 90.5767 72.2327 90.3947C72.2327 90.0674 71.7409 89.8357 70.7578 89.7033C70.3328 89.6537 70.1315 89.4176 70.1553 88.9926C70.1921 88.5679 70.4049 88.3859 70.7931 88.4465C71.6687 88.5683 72.944 88.6351 74.619 88.6476C75.7856 88.6588 76.9455 88.6654 78.0996 88.6654C78.4752 88.6779 78.664 88.9017 78.664 89.3392C78.664 89.7514 78.3665 89.9762 77.7718 90.0131C76.8355 90.0484 75.9549 90.2607 75.1302 90.6501C73.9762 91.1709 72.7427 92.0874 71.4309 93.3986C71.3346 93.4717 71.2853 93.5625 71.2853 93.6715C71.2853 93.8411 71.4915 94.2482 71.9053 94.8915C73.4234 97.1975 74.8568 98.9384 76.2043 100.116C77.0671 100.856 77.8743 101.226 78.6271 101.226C79.1865 101.226 79.5327 101.266 79.6655 101.345C79.7999 101.424 79.8671 101.633 79.8671 101.973Z" fill="black"/>
</g>
<defs>
<clipPath id="clip0_41_88">
<rect width="80" height="102.749" fill="white" transform="translate(0 0.313477)"/>
</clipPath>
</defs>
</svg>
