<svg width="80" height="81" viewBox="0 0 80 81" fill="none" xmlns="http://www.w3.org/2000/svg">
<path d="M78.4909 36.9204L43.5714 1.99197C42.6047 1.02616 41.2942 0.483643 39.9277 0.483643C38.5612 0.483643 37.2506 1.02616 36.2839 1.99197L29.0233 9.2473L38.2232 18.4473C43.0553 16.8151 47.6303 21.4419 45.9714 26.2472L54.8392 35.1151C60.9517 33.0079 65.7642 40.6508 61.1731 45.2382C56.4428 49.9686 48.6357 44.7257 51.1732 38.5704L42.8964 30.3044V52.0632C47.4143 54.3025 46.8714 59.5364 44.5178 61.8846C43.3679 63.0338 41.8088 63.6794 40.183 63.6794C38.5573 63.6794 36.9981 63.0338 35.8482 61.8846C32.7107 58.7418 33.8714 53.5079 37.8572 51.8847V29.9204C34.1429 28.4008 33.4643 24.4312 34.5286 21.8848L25.459 12.8044L1.50907 36.7579C0.542816 37.7244 0 39.035 0 40.4017C0 41.7683 0.542816 43.0789 1.50907 44.0454L36.4393 78.9738C37.4057 79.9395 38.716 80.482 40.0821 80.482C41.4483 80.482 42.7586 79.9395 43.725 78.9738L78.4909 44.2079C79.4572 43.2414 80 41.9308 80 40.5642C80 39.1975 79.4572 37.8869 78.4909 36.9204Z" fill="#F15639"/>
</svg>
