<svg width="80" height="91" viewBox="0 0 80 91" fill="none" xmlns="http://www.w3.org/2000/svg">
<path d="M78.1617 2.96833C77.8088 2.57862 77.3014 2.35803 76.772 2.35803H3.2279C2.69849 2.35803 2.19113 2.57862 1.83819 2.96833C1.4779 3.35803 1.30143 3.88009 1.3529 4.4095L7.9779 78.6227C8.04407 79.4022 8.58819 80.0492 9.33819 80.2698L39.4779 88.8727C39.6397 88.9242 39.8161 88.9463 39.9926 88.9463C40.1691 88.9463 40.3382 88.9242 40.5073 88.8727L70.6691 80.2698C71.4191 80.0492 71.9558 79.4022 72.0294 78.6227L78.647 4.4095C78.6985 3.88009 78.522 3.35803 78.1617 2.96833ZM62.3014 28.5566H26.8897L27.7352 38.1374H61.4485L58.9191 66.4536L39.9852 72.1742L39.8014 72.1154L21.0882 66.4463L20.0661 54.9095H29.2352L29.6323 59.3874L40.0955 61.5786L50.3676 59.3874L51.4632 47.2698H19.3823L16.8897 19.4022H63.1176L62.3014 28.5566Z" fill="#DD4B25"/>
</svg>
