<svg width="80" height="81" viewBox="0 0 80 81" fill="none" xmlns="http://www.w3.org/2000/svg">
<path d="M0 0.652222V80.6522H80V0.652222H0ZM43.5357 63.0451C43.5357 70.8308 38.9643 74.3844 32.3036 74.3844C26.2857 74.3844 22.8036 71.2772 21.0179 67.5094L27.1429 63.8129C28.3214 65.9022 29.3929 67.6701 31.9821 67.6701C34.4464 67.6701 36.0179 66.7058 36.0179 62.9379V37.3844H43.5357V63.0451ZM61.3214 74.3844C54.3393 74.3844 49.8214 71.0629 47.625 66.7058L53.75 63.1701C55.3571 65.7951 57.4643 67.7415 61.1607 67.7415C64.2679 67.7415 66.2679 66.1879 66.2679 64.0272C66.2679 61.4558 64.2321 60.5451 60.7857 59.0272L58.9107 58.2237C53.4821 55.9201 49.8929 53.0094 49.8929 46.8844C49.8929 41.2415 54.1964 36.9558 60.8929 36.9558C65.6786 36.9558 69.1071 38.6165 71.5714 42.9737L65.7143 46.7237C64.4286 44.4201 63.0357 43.5094 60.875 43.5094C58.6786 43.5094 57.2857 44.9022 57.2857 46.7237C57.2857 48.9737 58.6786 49.8844 61.9107 51.2951L63.7857 52.0987C70.1786 54.8308 73.7679 57.6344 73.7679 63.9201C73.7679 70.6701 68.4464 74.3844 61.3214 74.3844Z" fill="#EFD81D"/>
</svg>
