<svg width="80" height="81" viewBox="0 0 80 81" fill="none" xmlns="http://www.w3.org/2000/svg">
<path d="M0.00333333 58.8581H3.20333V47.0497L7.64833 57.1447C8.19667 58.4031 8.94667 58.8481 10.4183 58.8481C11.89 58.8481 12.61 58.4031 13.1583 57.1447L17.6033 47.3081V58.8581H20.8033V46.7614C20.8033 45.5997 20.3417 45.0364 19.3883 44.7464C17.11 44.0297 15.58 44.6481 14.8883 46.1997L10.33 56.4664L5.915 46.1997C5.25167 44.6497 3.695 44.0297 1.415 44.7464C0.461667 45.0364 0 45.5981 0 46.7597V58.8564L0.00333333 58.8581Z" fill="#00796B"/>
<path d="M22.4016 49.2581H25.6016V56.0164C25.5766 56.3497 25.7083 57.2347 27.2516 57.2581C28.0383 57.2714 31.9533 57.2581 32.0016 57.2581V49.2581H35.2016C35.2149 49.2581 35.2016 59.2047 35.2016 59.2464C35.2183 61.6997 32.1549 62.0164 30.7466 62.0581H22.4033V60.4581C22.4199 60.4581 30.3816 60.4597 30.4049 60.4581C32.2183 60.2664 32.0033 59.2681 32.0033 58.9647V58.8581H26.9833C24.1999 58.8331 22.4249 57.6064 22.4049 56.2081C22.4016 56.0781 22.4649 49.3181 22.4016 49.2581Z" fill="#00796B"/>
<path d="M36.8016 58.8581H44.8133C45.8633 58.8581 46.8833 58.6381 47.6933 58.2581C49.0433 57.6381 49.6 56.7998 49.6 55.6981V53.4181C49.6 50.9581 46.55 50.8581 44.8 50.8581H41.6C40.3416 50.8581 40.15 50.0981 40 49.2581V47.6581C40.15 47.0181 40.43 46.1581 41.5383 46.0581C42.8266 46.0581 49.5983 46.0581 49.5983 46.0581V44.4581H41.9883C40.73 44.4581 36.7983 44.6081 36.7983 47.6581V49.6365C36.7983 51.0365 38.0283 52.1765 40.6983 52.4565C40.9983 52.4765 41.2983 52.4965 41.5966 52.4965C41.5966 52.4965 44.7066 52.4365 44.7966 52.4565C46.5966 52.4565 46.3966 53.8565 46.3966 54.0565V55.6565C46.3966 55.8765 46.3466 57.2565 44.7783 57.2565C44.6583 57.2565 36.7966 57.2565 36.7966 57.2565V58.8581H36.8016Z" fill="#F57F17"/>
<path d="M67.2 55.5898C67.2 57.5214 68.2916 58.6048 71.1866 58.8214C71.4566 58.8398 71.7283 58.8564 72 58.8564H80V57.2564H72.6083C70.9566 57.2564 70.4 56.5631 70.4 55.5714V44.4564H67.2V55.5898Z" fill="#F57F17"/>
<path d="M51.1733 55.6581V47.6581C51.1733 45.9581 52.0067 44.7848 54.3667 44.4581H55.4867H61.2317H62.1067C64.4667 44.7848 65.5733 45.9565 65.5733 47.6581V55.6281C65.5733 57.0065 65.215 57.7465 64.0467 58.2265L66.5267 60.4565H62.9267L61.1433 58.8565H59.0483L55.4883 58.8765C54.9733 58.8765 54.43 58.8048 53.8333 58.6415C52.0433 58.1531 51.1733 57.2131 51.1733 55.6581ZM54.3733 55.6581C54.5367 56.4365 55.1617 57.2581 56.2733 57.2581H59.38L57.6 55.6581H61.225L62.09 56.4615C62.09 56.4615 62.4 56.2081 62.4 55.6581C62.4 55.1081 62.3733 47.6581 62.3733 47.6581C62.21 46.9348 61.4767 46.0581 60.3933 46.0581H56.275C55.0267 46.0581 54.375 46.9715 54.375 47.8215L54.3733 55.6581Z" fill="#F57F17"/>
<path d="M76.9983 42.7715C75.28 42.7248 73.9683 42.8848 72.8467 43.3564C72.5283 43.4914 72.02 43.4948 71.9667 43.8948C72.1417 44.0781 72.1683 44.3531 72.3083 44.5781C72.575 45.0114 73.0283 45.5931 73.4317 45.8965C73.8733 46.2298 74.3283 46.5864 74.8 46.8748C75.64 47.3864 76.5783 47.6798 77.3883 48.1931C77.865 48.4948 78.3383 48.8781 78.805 49.2181C79.035 49.3881 79.1883 49.6498 79.4883 49.7564C79.4883 49.7398 79.4883 49.7248 79.4883 49.7081C79.3317 49.5081 79.29 49.2331 79.1467 49.0231C78.935 48.8114 78.7233 48.5998 78.5117 48.3881C77.8917 47.5648 77.1017 46.8398 76.265 46.2398C75.5967 45.7598 74.1017 45.1114 73.8217 44.3348C73.805 44.3181 73.79 44.3031 73.7717 44.2848C74.245 44.2315 74.8 44.0598 75.2367 43.9431C75.9717 43.7464 76.6267 43.7981 77.385 43.6014C77.7267 43.5031 78.0683 43.4065 78.41 43.3081C78.41 43.2431 78.41 43.1781 78.41 43.1131C78.0267 42.7198 77.7517 42.1998 77.335 41.8431C76.24 40.9115 75.0467 39.9815 73.8183 39.2048C73.1367 38.7748 72.2933 38.4948 71.5717 38.1298C71.3283 38.0064 70.9017 37.9431 70.7417 37.7398C70.3617 37.2565 70.1567 36.6415 69.8633 36.0798C69.25 34.8998 68.6467 33.6098 68.105 32.3681C67.7333 31.5214 67.4917 30.6848 67.03 29.9248C64.8117 26.2781 62.4233 24.0764 58.7267 21.9131C57.94 21.4531 56.9917 21.2714 55.99 21.0331C55.4517 21.0014 54.915 20.9681 54.3767 20.9348C54.0483 20.7964 53.7083 20.3964 53.3983 20.2014C52.1733 19.4264 49.03 17.7431 48.1233 19.9564C47.55 21.3531 48.98 22.7164 49.4917 23.4248C49.85 23.9214 50.31 24.4781 50.5667 25.0381C50.735 25.4048 50.765 25.7731 50.9083 26.1614C51.2633 27.1181 51.825 28.2081 52.285 29.0931C52.5167 29.5414 52.7733 30.0114 53.0667 30.4114C53.2467 30.6564 53.555 30.7648 53.605 31.1448C53.3033 31.5664 53.2867 32.2214 53.1167 32.7581C52.3533 35.1665 52.6417 38.1581 53.7517 39.9381C54.0917 40.4848 54.895 41.6581 55.9983 41.2081C56.9633 40.8148 56.7483 39.5965 57.0233 38.5215C57.085 38.2781 57.0467 38.0998 57.17 37.9365C57.17 37.9531 57.17 37.9681 57.17 37.9864C57.4633 38.5714 57.755 39.1598 58.05 39.7448C58.7017 40.7931 59.8567 41.8881 60.8333 42.6281C61.34 43.0114 61.74 43.6748 62.3967 43.8981C62.3967 43.8815 62.3967 43.8664 62.3967 43.8481C62.38 43.8481 62.365 43.8481 62.3467 43.8481C62.22 43.6498 62.02 43.5681 61.8583 43.4081C61.4767 43.0331 61.05 42.5681 60.735 42.1381C59.845 40.9298 59.0583 39.6064 58.3417 38.2298C58 37.5714 57.7017 36.8481 57.4133 36.1781C57.3017 35.9198 57.3033 35.5298 57.0717 35.3965C56.755 35.8864 56.2917 36.2831 56.0467 36.8615C55.6567 37.7864 55.605 38.9165 55.4617 40.0848C55.375 40.1148 55.4133 40.0948 55.3633 40.1331C54.6833 39.9681 54.4433 39.2698 54.19 38.6681C53.55 37.1481 53.4317 34.7014 53.995 32.9531C54.14 32.4998 54.7983 31.0748 54.5333 30.6565C54.4067 30.2381 53.9867 29.9965 53.7533 29.6781C53.4617 29.2848 53.1733 28.7648 52.9717 28.3098C52.4483 27.1248 51.9517 25.7464 51.4 24.5481C51.1367 23.9748 50.6917 23.3964 50.325 22.8881C49.92 22.3248 49.465 21.9098 49.1517 21.2281C49.04 20.9864 48.8883 20.5981 49.0533 20.3481C49.1067 20.1798 49.18 20.1098 49.3467 20.0548C49.63 19.8348 50.4183 20.1264 50.715 20.2498C51.4983 20.5748 52.1517 20.8848 52.815 21.3248C53.1333 21.5364 53.455 21.9448 53.84 22.0581C53.9867 22.0581 54.1333 22.0581 54.28 22.0581C54.9683 22.2164 55.7383 22.1081 56.38 22.3031C57.5167 22.6481 58.5333 23.1848 59.4567 23.7681C62.2733 25.5464 64.575 28.0765 66.15 31.0964C66.4033 31.5831 66.5133 32.0464 66.735 32.5615C67.185 33.6014 67.7533 34.6714 68.2 35.6881C68.6467 36.7031 69.0833 37.7264 69.715 38.5714C70.0483 39.0148 71.3317 39.2531 71.9133 39.4998C72.3217 39.6731 72.9917 39.8514 73.3783 40.0848C74.1183 40.5315 74.835 41.0631 75.5267 41.5498C75.88 41.7948 76.945 42.3298 76.9983 42.7715Z" fill="#00796B"/>
<path d="M55.1633 24.1614C54.805 24.1548 54.5517 24.1998 54.2833 24.2598C54.2833 24.2764 54.2833 24.2914 54.2833 24.3098C54.3 24.3098 54.315 24.3098 54.3333 24.3098C54.505 24.6598 54.805 24.8881 55.0167 25.1898C55.18 25.5314 55.3417 25.8731 55.505 26.2148C55.5217 26.1981 55.5367 26.1831 55.5533 26.1664C55.855 25.9531 55.995 25.6131 55.9933 25.0914C55.8717 24.9631 55.8533 24.8031 55.7483 24.6514C55.6083 24.4464 55.3383 24.3314 55.1633 24.1614Z" fill="#00796B"/>
</svg>
