<svg width="80" height="81" viewBox="0 0 80 81" fill="none" xmlns="http://www.w3.org/2000/svg">
<g clip-path="url(#clip0_41_93)">
<path d="M40.7048 57.589C40.7048 57.589 40.6857 57.5129 40.6667 57.3606C40.7048 57.5129 40.7048 57.589 40.7048 57.589Z" fill="#E12A54"/>
<path d="M46.1767 11.4247C46.1767 11.4247 45.463 8.80766 46.4146 6.66645C47.3662 4.52525 47.3662 3.09778 45.463 0.956575C49.2695 0.718664 50.697 3.33569 50.697 3.33569L50.7446 3.63831C50.9692 5.09624 50.2155 6.48183 48.9441 7.23173C47.7831 7.91501 46.5345 9.16357 46.1767 11.4247Z" fill="#E12A54"/>
<path d="M73.3081 63.9841C73.3462 63.5844 73.9552 58.1981 72.5849 55.6857C69.7299 63.7557 66.875 71.1405 58.5576 76.3745C59.7377 73.9954 61.6409 70.1888 63.5442 64.4789C57.8344 72.0921 46.4146 79.7053 37.8498 80.1811C43.6358 76.9836 46.8904 72.8725 48.3179 70.1888C48.3179 70.1888 44.9871 71.1405 40.9331 71.6163C46.4146 68.2855 50.2212 62.3472 48.3179 53.0592C44.5113 64.9548 39.2773 68.7613 32.3683 69.4656C25.4784 70.1888 19.2927 66.6106 19.2927 66.6106L21.6718 66.3822C21.6718 66.3822 15.4861 61.624 17.6368 55.4383C17.732 55.1338 17.8462 54.8483 17.9794 54.5818C19.5401 51.1178 24.8503 52.8689 24.2983 56.6183V56.6374C24.2983 56.6374 25.9542 61.1482 30.465 59.9491C31.9115 57.589 32.8632 55.1909 32.8632 55.1909L33.5674 58.2932C33.5674 58.2932 36.8981 56.8658 36.8981 54.2392C39.7531 55.3241 40.4763 56.6754 40.6476 57.2655C40.1528 54.6008 35.8513 36.2721 13.0689 36.5386L9.09104 40.231C8.82458 40.4784 8.40586 40.2691 8.44392 39.9265L8.74845 36.8812L9.01491 36.6147C8.93878 36.6338 8.84362 36.6147 8.76748 36.6147L8.74845 36.8812L7.18775 38.3277C6.92129 38.5751 6.50257 38.3658 6.54063 38.0232L6.73096 36.0818C3.41923 34.6734 3.11471 30.9429 3.11471 30.9429C3.11471 30.9429 -1.01544 29.7819 0.73559 24.5098C1.68724 21.6549 3.97119 21.3694 4.94187 21.5978C6.17901 21.8833 7.45421 21.9023 8.63425 21.4265C10.3472 20.7413 12.536 19.428 14.0586 16.8966C16.9136 12.1384 21.196 10.2351 30.465 10.2351C42.7412 10.2351 47.6898 14.0036 48.2608 14.4604C47.9182 14.0607 45.8436 11.301 50.2212 7.15178C54.5417 3.04067 53.7613 2.06999 53.59 1.91772C54.2371 2.10805 62.6306 4.96299 63.5442 15.945C64.4959 27.3647 51.1728 29.7439 51.1728 29.7439C51.1728 29.7439 68.3025 33.0746 68.5309 16.8966C71.8806 18.7999 78.7706 25.9373 79.7222 41.411C80.6548 56.409 73.7078 63.5844 73.3081 63.9841Z" fill="#E12A54"/>
<path d="M9.01493 36.6147L8.74847 36.8812L8.76751 36.6147C8.84364 36.6147 8.9388 36.6338 9.01493 36.6147Z" fill="#E12A54"/>
<path d="M9.01493 36.6147L8.74847 36.8812L8.76751 36.6147C8.84364 36.6147 8.9388 36.6338 9.01493 36.6147Z" fill="#E12A54"/>
</g>
<defs>
<clipPath id="clip0_41_93">
<rect width="80" height="79.5062" fill="white" transform="translate(0 0.934692)"/>
</clipPath>
</defs>
</svg>
