<svg width="80" height="81" viewBox="0 0 80 81" fill="none" xmlns="http://www.w3.org/2000/svg">
<g clip-path="url(#clip0_41_99)">
<path d="M30.0143 55.5889C30.0143 57.234 28.6811 58.5691 27.034 58.5691C25.387 58.5691 24.0538 57.234 24.0538 55.5889V27.7735C24.0538 26.4761 24.8942 25.3277 26.13 24.9323C27.3718 24.5389 28.7169 24.9919 29.4659 26.0509L62.7987 73.1464C73.015 65.9382 79.7364 54.069 79.7364 40.6878C79.7364 18.8328 61.855 0.951416 40 0.951416C18.145 0.951416 0.263672 18.8328 0.263672 40.6878C0.263672 62.5428 18.145 80.4241 40 80.4241C46.3419 80.4241 52.3302 78.8803 57.6628 76.2081L30.0143 37.1433V55.5889ZM49.8825 25.7866C49.8825 24.1415 51.2156 22.8064 52.8627 22.8064C54.5097 22.8064 55.8429 24.1415 55.8429 25.7866V53.2842L49.8825 44.8859V25.7866Z" fill="#080808"/>
</g>
<defs>
<clipPath id="clip0_41_99">
<rect width="80" height="80" fill="white" transform="translate(0 0.687744)"/>
</clipPath>
</defs>
</svg>
