<svg width="80" height="91" viewBox="0 0 80 91" fill="none" xmlns="http://www.w3.org/2000/svg">
<path d="M39.9821 90.5992C38.7825 90.5992 37.5649 90.2769 36.5085 89.6682L25.4611 83.1328C23.8138 82.2017 24.6195 81.8794 25.1567 81.7004C27.359 80.9305 27.8066 80.7693 30.1522 79.4264C30.4029 79.2832 30.7252 79.3369 30.9758 79.4981L39.4629 84.5294C39.7672 84.7084 40.197 84.7084 40.4834 84.5294L73.5542 65.4426C73.8586 65.2635 74.0555 64.9054 74.0555 64.5473V26.3736C74.0555 25.9976 73.8586 25.6574 73.5363 25.4605L40.4834 6.39152C40.1791 6.21247 39.7672 6.21247 39.4629 6.39152L6.42793 25.4784C6.10564 25.6574 5.90868 26.0155 5.90868 26.3915V64.5473C5.90868 64.9054 6.10564 65.2635 6.42793 65.4246L15.4879 70.6529C20.4118 73.1059 23.4199 70.2232 23.4199 67.3047V29.6323C23.4199 29.0952 23.8496 28.6834 24.3868 28.6834H28.5765C29.0958 28.6834 29.5434 29.0952 29.5434 29.6323V67.3226C29.5434 73.8759 25.9624 77.6359 19.7493 77.6359C17.8335 77.6359 16.3295 77.6359 12.1397 75.5589L3.47359 70.5634C1.32498 69.328 0 67.0182 0 64.5294V26.3736C0 23.9027 1.32498 21.575 3.47359 20.3396L36.5085 1.25276C38.6034 0.0710209 41.3787 0.0710209 43.4557 1.25276L76.5264 20.3575C78.675 21.593 80 23.9027 80 26.3915V64.5473C80 67.0182 78.675 69.328 76.5264 70.5813L43.4557 89.6682C42.3993 90.2769 41.1996 90.5992 39.9821 90.5992ZM66.6786 52.9806C66.6786 45.8365 61.8442 43.9385 51.692 42.5956C41.4145 41.2349 40.376 40.5366 40.376 38.1373C40.376 36.1498 41.2534 33.4998 48.863 33.4998C55.6491 33.4998 58.1558 34.9681 59.1943 39.5518C59.2838 39.9815 59.6777 40.3038 60.1253 40.3038H64.4226C64.6911 40.3038 64.9418 40.1964 65.1209 39.9994C65.2999 39.8024 65.3894 39.5339 65.3715 39.2653C64.709 31.3691 59.4628 27.6986 48.863 27.6986C39.427 27.6986 33.8048 31.6735 33.8048 38.3521C33.8048 45.5858 39.4091 47.5912 48.4512 48.4864C59.2838 49.5428 60.1253 51.1364 60.1253 53.2671C60.1253 56.9555 57.1531 58.5312 50.188 58.5312C41.4324 58.5312 39.5166 56.3289 38.872 51.9779C38.8004 51.5124 38.4064 51.1722 37.923 51.1722H33.6437C33.1065 51.1722 32.6947 51.6019 32.6947 52.1212C32.6947 57.6896 35.7207 64.3324 50.2059 64.3324C60.6625 64.3145 66.6786 60.1785 66.6786 52.9806Z" fill="#47A363"/>
</svg>
