<svg width="80" height="87" viewBox="0 0 80 87" fill="none" xmlns="http://www.w3.org/2000/svg">
<g clip-path="url(#clip0_41_120)">
<path d="M59.4271 0.792725C56.57 0.792725 54.0923 1.3582 51.8081 1.93112C55.8111 3.64243 58.2887 5.74064 59.6206 6.69302C62.6712 9.35671 64.3825 12.0278 67.4331 16.4103C67.9986 17.3627 68.951 18.6945 69.5239 20.7853C70.0968 22.69 70.0968 24.2153 70.0968 25.7406C70.0968 27.8389 69.9033 29.5502 69.7099 31.2615C69.5239 32.6008 69.5239 33.1737 69.3379 33.5531C69.3379 33.7466 69.3379 33.9326 69.1444 34.3121C69.1444 35.2645 69.1444 35.6514 69.3379 36.4103C69.3379 37.1692 69.5239 37.9356 69.5239 39.2674C69.7173 41.7451 69.7173 43.4564 69.3379 45.5472V46.3136C68.9509 48.0249 68.5715 49.7436 67.6191 51.2615C67.8126 51.6484 67.9986 51.8344 68.192 52.2139C69.1444 50.882 69.9033 49.5502 70.6623 48.0323C72.9539 43.8359 74.2858 40.2198 75.2382 37.5561C76.9495 32.6008 77.9018 28.9772 78.4748 26.3136C79.8066 20.5993 80.0001 17.9356 79.4271 14.885C79.4271 13.9326 79.0477 12.2139 78.0953 10.5025C75.9971 6.69302 72.7605 4.98171 70.4762 3.83588C68.951 3.07695 64.948 0.978736 59.4271 0.792725ZM18.1623 1.6335C15.9673 1.58885 13.2887 1.83439 10.2828 3.26296C9.33041 3.64987 6.47327 4.98171 4.18904 8.02487C2.66374 9.92963 1.52535 12.7868 0.952433 16.0234C0.379517 18.8805 0.186064 22.318 1.3319 28.7912C2.09083 33.3597 2.85719 36.4103 4.38249 42.69C4.57595 43.4564 5.71434 46.8865 8.19202 54.5055L8.37803 54.885C8.76494 56.2168 9.90333 59.074 12.381 61.9311C14.0923 63.8359 15.6176 64.9817 16.9569 64.9817H17.3289C19.8066 64.9817 21.5254 63.0769 23.0432 61.5517C23.0432 61.3582 26.6667 56.9832 27.9986 55.4579C27.8051 55.2645 27.4331 55.2645 27.2396 55.071C24.9554 53.7392 23.2367 51.6484 21.9048 49.3567C19.6206 45.1677 19.8066 40.9787 20.1861 38.8805L20.3795 35.6514C19.6206 30.5025 19.814 25.5546 20.7664 20.5993C21.5254 16.4103 22.4777 12.2213 25.9004 7.83885C27.0462 6.31356 28.378 4.98171 29.7099 4.02933C26.6667 2.69749 23.4301 1.93112 20.1861 1.74511C19.5685 1.69302 18.8914 1.64838 18.1623 1.6335ZM42.0908 3.26296C41.1384 3.26296 40.1861 3.26296 39.2337 3.45641C35.4242 4.21534 31.8081 6.31356 28.9509 9.92963C26.0938 13.5531 25.3349 16.9758 24.5759 20.9787C24.189 22.504 24.189 23.8359 23.9956 25.3612C25.1414 24.4088 26.6667 23.263 28.9509 22.69C30.2828 22.3106 33.7129 21.1722 36.57 22.8835C37.5224 23.4564 38.8542 24.6022 40.1861 27.8389C43.0432 35.8374 40.1935 44.0293 39.814 44.7883C39.6206 45.5472 39.2411 46.1201 39.0477 46.4996C38.6682 47.4519 38.2887 48.2183 37.9093 49.7436C37.7158 51.0755 37.5224 52.2213 37.5224 53.5531C38.0953 53.5531 38.6682 53.7392 39.2337 54.1186C40.1861 55.071 40.3795 56.4103 40.573 56.9758C40.9524 60.0264 40.9524 63.8359 40.9524 67.6454C40.9524 70.696 40.9524 73.5531 41.1384 75.4579C41.5254 79.8403 42.8572 82.8835 44.762 84.4088C46.0938 85.5546 47.8051 85.5472 48.7575 85.7406H49.1444C52.0015 85.7406 56.57 83.8359 58.2813 81.1722C59.2337 79.6469 59.6206 78.315 60.0001 76.4103C60.1935 75.2645 60.1861 74.699 60.3795 73.5531C60.3795 72.9802 60.573 72.0278 60.573 70.8895C60.573 69.9371 60.759 68.7912 60.9524 67.452C61.1459 64.2153 61.7114 60.4133 61.9048 58.315C62.0983 55.8374 63.2367 53.7392 64.189 52.4073C62.8572 52.2139 61.5254 51.0755 60.7664 49.1707C59.6206 47.0725 59.4271 46.4996 59.2337 45.5472C59.0477 44.7883 58.6682 43.8359 57.3289 40.9787C54.4718 34.5055 54.0998 32.6008 54.0998 31.0755C53.9063 28.9772 53.7129 26.1275 56.0045 24.2228C59.4271 21.1722 63.8096 21.3656 66.0938 22.1246V21.7377C65.7143 20.2198 64.9554 19.074 64.3825 18.315C61.5254 13.9326 60.0001 11.6484 57.3289 9.36415C56.1905 8.41177 53.3334 6.12011 49.1444 4.60225C47.2396 4.02933 44.948 3.26296 42.0908 3.26296ZM63.1474 25.5993C61.7634 25.5025 60.0001 25.7406 58.4748 27.0799C57.7158 27.8389 57.7158 29.3642 57.9093 30.696C57.9093 31.6484 58.0953 32.9802 60.9524 39.4609C62.2843 42.504 62.6637 43.4564 62.8572 44.2228C63.0507 44.9817 63.2367 45.3612 64.3825 47.4519C64.576 47.8389 64.762 48.2183 65.1414 48.5978C65.5209 48.0249 65.7143 47.0725 65.9004 45.5472L66.0938 44.9817C66.4733 43.2704 66.2873 41.9311 66.2873 39.6469C66.2873 38.5011 66.0938 37.7421 66.0938 37.1692C65.9004 36.2168 65.9004 35.4579 65.9004 34.3121C65.5209 33.7392 65.5209 33.5531 65.7143 33.1662C65.7143 32.7868 65.9004 32.2213 66.0938 31.0755C66.2873 29.5502 66.4807 28.2183 66.4807 26.693C66.0938 26.4996 65.9078 26.3136 65.5283 26.1275C65.5283 26.1275 64.5239 25.696 63.1474 25.5993ZM33.3632 26.3508C32.1504 26.2094 30.759 26.6037 29.9033 26.8865C27.8051 27.4594 26.4807 28.7912 25.5283 29.5502C24.9554 30.1231 24.3825 30.696 23.8096 31.4549C23.8096 32.7868 23.9956 34.1261 24.189 35.4579V35.6514L23.8096 39.4609C23.4301 41.1722 23.2367 44.4088 25.1414 47.6454C26.0938 49.5502 27.4331 51.0755 29.1444 52.0278C30.2902 52.7868 31.8081 53.3597 33.5194 53.7466C33.5194 52.4073 33.7129 50.882 33.9063 49.5502C34.2858 47.6454 34.6652 46.693 35.2382 45.5472C35.4316 44.9817 35.6176 44.6022 36.0045 44.0293C36.1905 43.4564 38.8542 36.2168 36.3765 29.5502C35.8111 28.0249 35.2382 27.0725 34.4718 26.693C34.1444 26.4996 33.7575 26.3954 33.3632 26.3508ZM61.3096 27.4371C61.8081 27.4073 62.2843 27.4519 62.4777 27.6454C63.0507 28.0249 62.2843 28.9772 62.0908 29.1707C61.9048 29.3642 61.5254 29.7436 60.9524 29.9371C60.1935 30.1231 59.6206 29.5502 59.4271 29.5502C59.2337 29.3567 58.6682 28.7912 58.8617 28.2183C59.0477 27.8389 59.2411 27.8389 60.0001 27.6454C60.2828 27.5487 60.8111 27.4594 61.3096 27.4371ZM32.6786 29.0144C33.3185 28.9698 33.8542 29.2153 34.2858 29.3567C34.8587 29.5502 35.4242 29.7436 35.4242 30.1231C35.6176 30.696 35.0521 31.0755 34.8587 31.2615C34.2858 31.8344 33.3334 31.8418 33.3334 31.8418C32.381 31.8418 31.8081 31.2689 31.4286 30.696C31.2352 30.5025 31.0492 30.1231 31.2426 29.7436C31.4286 29.3642 31.8081 29.1707 32.0015 29.1707C32.2396 29.074 32.4629 29.0293 32.6786 29.0144ZM67.6191 53.9326C66.6667 55.2644 65.3349 56.9832 65.1414 59.2674C65.1414 59.6469 65.1414 59.8403 64.948 60.2198C66.4733 60.5993 67.8126 60.5993 69.1444 60.4133C72.195 60.0264 74.2858 58.5011 74.6652 58.1216C75.9971 57.1692 77.7158 55.2645 77.3289 54.5055C77.1429 54.1261 76.57 54.3121 73.5194 54.5055C72.7605 54.5055 70.4762 55.0784 68.9509 54.699H68.5715C68.192 54.5055 67.8126 54.3121 67.6191 53.9326ZM34.4718 57.7421C34.0923 58.315 33.5268 58.6945 33.1474 59.074C31.6221 60.0264 29.7099 60.7927 27.8051 61.1722C26.0938 61.7451 25.1414 61.7451 25.1414 62.318C24.948 63.0769 26.8527 64.0293 27.8051 64.4088C31.0492 65.7406 34.2858 64.9817 34.8587 64.7883C35.2382 64.5948 36.1905 64.2153 37.1429 63.6424C37.1429 61.5517 36.9569 59.6469 36.7634 58.1216V57.9281H36.57C35.9971 57.9281 35.2382 57.9356 34.4718 57.7421Z" fill="#396C94"/>
</g>
<defs>
<clipPath id="clip0_41_120">
<rect width="80" height="85.7143" fill="white" transform="translate(0 0.599243)"/>
</clipPath>
</defs>
</svg>
