<svg width="80" height="79" viewBox="0 0 80 79" fill="none" xmlns="http://www.w3.org/2000/svg">
<g clip-path="url(#clip0_143_62)">
<path d="M41.122 0.677884C37.9323 0.688141 35.721 0.969167 33.0482 1.43071C25.1549 2.80506 23.7169 5.69122 23.7169 11.0102V19.1394H42.1784V23.242H23.0154H14.0923C8.68511 23.242 3.9528 25.7897 2.45332 31.8963C0.758958 38.9056 0.683061 43.2953 2.45332 50.6143C3.79691 56.0728 6.75691 60.1651 12.1661 60.1651H19.6164V49.6953C19.6164 43.6112 25.1261 37.601 31.44 37.601H46.2831C51.4584 37.601 56.5395 33.7815 56.5395 28.6225V11.0102C56.5395 6.00711 52.9313 2.26558 47.8872 1.4266C48.0123 1.41429 44.2851 0.665577 41.122 0.677884ZM30.8984 8.88301C32.5825 8.88301 33.9754 10.2717 33.9754 11.964C33.9754 13.6728 32.5825 15.0369 30.8984 15.0369C29.1815 15.0369 27.8215 13.6748 27.8215 11.964C27.8215 10.2779 29.1815 8.88301 30.8984 8.88301Z" fill="#0277BD"/>
<path d="M39.1344 78.6266C42.3241 78.6163 44.5354 78.3353 47.2082 77.8738C55.1015 76.4994 56.5395 73.6133 56.5395 68.2943V60.165H38.0779V56.0625H57.2431H66.1661C71.5733 56.0625 76.3056 53.5148 77.8051 47.4081C79.4995 40.3989 79.5754 36.0091 77.8051 28.6902C76.4595 23.2317 73.4995 19.1394 68.0902 19.1394H60.64V29.6091C60.64 35.6933 55.1303 41.7035 48.8164 41.7035H33.9733C28.7979 41.7035 23.7169 45.523 23.7169 50.682V68.2943C23.7169 73.2974 27.3251 77.0389 32.3692 77.8779C32.2441 77.8902 35.9713 78.6389 39.1344 78.6266ZM49.36 70.4215C47.6759 70.4215 46.2831 69.0327 46.2831 67.3404C46.2831 65.6317 47.6759 64.2676 49.36 64.2676C51.0769 64.2676 52.4369 65.6297 52.4369 67.3404C52.4369 69.0266 51.0749 70.4215 49.36 70.4215Z" fill="#FFC107"/>
</g>
<defs>
<clipPath id="clip0_143_62">
<rect width="80" height="77.949" fill="white" transform="translate(0 0.677734)"/>
</clipPath>
</defs>
</svg>
