<svg width="80" height="71" viewBox="0 0 80 71" fill="none" xmlns="http://www.w3.org/2000/svg">
<path d="M65.3438 23.1401C64.5 22.8589 63.6562 22.5933 62.8125 22.3433C62.9531 21.7651 63.0781 21.187 63.2031 20.6089C65.125 11.2964 63.8594 3.81201 59.5938 1.34326C55.4844 -1.01611 48.7812 1.43701 42 7.34326C41.3281 7.92139 40.6719 8.53076 40.0469 9.14014C39.625 8.73389 39.1875 8.32764 38.75 7.93701C31.6406 1.62451 24.5156 -1.03174 20.25 1.45264C16.1562 3.82764 14.9375 10.8745 16.6562 19.687C16.8281 20.562 17.0156 21.4214 17.2344 22.2964C16.2344 22.5776 15.25 22.8901 14.3281 23.2183C5.98437 26.1089 0 30.6714 0 35.3901C0 40.2651 6.375 45.1558 15.0469 48.1245C15.75 48.3589 16.4531 48.5933 17.1719 48.7964C16.9375 49.7339 16.7344 50.6558 16.5469 51.6089C14.9062 60.2808 16.1875 67.1558 20.2812 69.5151C24.5 71.9526 31.5937 69.4526 38.5 63.4058C39.0469 62.9214 39.5938 62.4214 40.1406 61.8901C40.8281 62.562 41.5469 63.2026 42.2656 63.8276C48.9531 69.5776 55.5625 71.9058 59.6406 69.5464C63.8594 67.1089 65.2344 59.7183 63.4531 50.7183C63.3125 50.0308 63.1562 49.3276 62.9844 48.6089C63.4844 48.4683 63.9688 48.312 64.4531 48.1558C73.4688 45.1714 80 40.3433 80 35.3901C80 30.6558 73.8438 26.062 65.3438 23.1401ZM44.2031 9.87451C50.0156 4.81201 55.4375 2.82764 57.9062 4.24951C60.5469 5.76514 61.5625 11.8901 59.9062 19.937C59.7969 20.4683 59.6875 20.9839 59.5469 21.4995C56.0781 20.7183 52.5625 20.1558 49.0312 19.8433C47 16.937 44.7812 14.1558 42.375 11.5464C42.9844 10.9683 43.5781 10.4214 44.2031 9.87451ZM26.125 43.4995C26.9219 44.8589 27.7344 46.2183 28.5938 47.5464C26.1562 47.2808 23.7344 46.8901 21.3438 46.3745C22.0313 44.1245 22.8906 41.7964 23.8906 39.4214C24.6094 40.7964 25.3438 42.1558 26.125 43.4995ZM21.3906 24.7026C23.6406 24.2026 26.0312 23.7964 28.5156 23.4839C27.6875 24.7808 26.875 26.1089 26.1094 27.4526C25.3438 28.7808 24.5938 30.1401 23.8906 31.5151C22.9062 29.187 22.0781 26.9058 21.3906 24.7026ZM25.6719 35.4683C26.7031 33.312 27.8281 31.2026 29.0156 29.1245C30.2031 27.0464 31.4844 25.0308 32.8281 23.0464C35.1719 22.8745 37.5625 22.7808 40 22.7808C42.4375 22.7808 44.8438 22.8745 47.1719 23.0464C48.5 25.0151 49.7656 27.0308 50.9688 29.0933C52.1719 31.1558 53.2969 33.2651 54.3594 35.4058C53.3125 37.562 52.1875 39.687 50.9844 41.7808C49.7969 43.8589 48.5312 45.8745 47.2031 47.8745C44.875 48.0464 42.4531 48.1245 40 48.1245C37.5469 48.1245 35.1719 48.0464 32.875 47.9058C31.5156 45.9214 30.2344 43.8901 29.0312 41.812C27.8281 39.7339 26.7188 37.6245 25.6719 35.4683ZM53.8906 43.4683C54.6875 42.0933 55.4375 40.7026 56.1719 39.2964C57.1719 41.562 58.0469 43.8589 58.8125 46.2183C56.3906 46.7651 53.9375 47.187 51.4688 47.4683C52.3125 46.1558 53.1094 44.812 53.8906 43.4683ZM56.1406 31.5151C55.4062 30.1401 54.6562 28.7651 53.875 27.4214C53.1094 26.0933 52.3125 24.7808 51.4844 23.4839C54 23.7964 56.4062 24.2183 58.6562 24.7339C57.9375 27.0464 57.0937 29.2964 56.1406 31.5151ZM40.0312 13.937C41.6719 15.7183 43.2188 17.5933 44.6562 19.5308C41.5625 19.3901 38.4531 19.3901 35.3594 19.5308C36.8906 17.5151 38.4688 15.6401 40.0312 13.937ZM21.9062 4.35889C24.5312 2.82764 30.3594 5.01514 36.5 10.4526C36.8906 10.7964 37.2812 11.1714 37.6875 11.5464C35.2656 14.1558 33.0312 16.937 30.9844 19.8433C27.4531 20.1558 23.9531 20.7026 20.4844 21.4683C20.2813 20.6714 20.1094 19.8589 19.9375 19.0464C18.4688 11.4839 19.4375 5.78076 21.9062 4.35889ZM18.0781 45.5464C17.4219 45.3589 16.7812 45.1558 16.1406 44.937C12.8125 43.8901 9.03125 42.2339 6.29688 40.062C4.71875 38.9683 3.65625 37.2808 3.35938 35.3901C3.35938 32.5308 8.29688 28.8745 15.4219 26.3901C16.3125 26.0776 17.2188 25.7964 18.125 25.5308C19.1875 28.9214 20.4688 32.2495 21.9531 35.4683C20.4531 38.7339 19.1562 42.1089 18.0781 45.5464ZM36.2969 60.8589C33.7188 63.2183 30.7344 65.0933 27.4844 66.3745C25.75 67.2026 23.75 67.2808 21.9688 66.5776C19.4844 65.1401 18.4531 59.6245 19.8594 52.2026C20.0312 51.3276 20.2188 50.4526 20.4375 49.5933C23.9375 50.3433 27.4688 50.8589 31.0469 51.1245C33.1094 54.0464 35.375 56.8433 37.7969 59.4683C37.2969 59.9526 36.7969 60.4214 36.2969 60.8589ZM40.125 57.062C38.5312 55.3433 36.9375 53.437 35.3906 51.3901C36.8906 51.4526 38.4375 51.4839 40 51.4839C41.6094 51.4839 43.1875 51.4526 44.75 51.3745C43.3125 53.3589 41.7656 55.2495 40.125 57.062ZM60.5469 61.7495C60.4062 63.6558 59.4688 65.437 57.9688 66.6401C55.4844 68.0776 50.1875 66.2026 44.4688 61.2964C43.8125 60.7339 43.1562 60.1245 42.4844 59.4995C44.875 56.8589 47.0781 54.062 49.0781 51.1245C52.6562 50.8276 56.2188 50.2808 59.7344 49.4839C59.8906 50.1245 60.0312 50.7651 60.1562 51.3901C60.9219 54.7651 61.0469 58.2808 60.5469 61.7495ZM63.3906 44.9526C62.9531 45.0933 62.5156 45.2339 62.0625 45.3589C60.9688 41.9526 59.625 38.6245 58.0781 35.3901C59.5781 32.2026 60.8438 28.9214 61.9062 25.562C62.7188 25.7964 63.5 26.0464 64.25 26.2964C71.5312 28.7964 76.6406 32.5151 76.6406 35.3589C76.6406 38.4214 71.1875 42.3745 63.3906 44.9526ZM40 42.6089C43.9531 42.6089 47.1562 39.4058 47.1562 35.4526C47.1562 31.4995 43.9531 28.2964 40 28.2964C36.0469 28.2964 32.8438 31.4995 32.8438 35.4526C32.8438 39.4058 36.0469 42.6089 40 42.6089Z" fill="#66DBFB"/>
</svg>
