<svg width="80" height="61" viewBox="0 0 80 61" fill="none" xmlns="http://www.w3.org/2000/svg">
<g clip-path="url(#clip0_41_105)">
<rect width="80" height="59.4595" transform="translate(0 0.726685)" fill="transparent"/>
<path d="M68.4581 34.879C65.7007 34.8932 63.3111 35.5562 61.3081 36.5427C60.5757 35.0811 59.8339 33.7947 59.7092 32.8382C59.564 31.7223 59.3951 31.0562 59.5703 29.7256C59.7455 28.3951 60.5157 26.5121 60.5031 26.3716C60.4921 26.2311 60.3311 25.554 58.7401 25.5414C57.1491 25.5303 55.7885 25.8476 55.6275 26.2674C55.4665 26.6873 55.1603 27.6327 54.9709 28.6192C54.6915 30.0618 51.7952 35.2073 50.149 37.8985C49.6107 36.8473 49.153 35.9223 49.0583 35.19C48.9131 34.0741 48.7442 33.408 48.9194 32.0774C49.0946 30.7468 49.8649 28.8638 49.8522 28.7234C49.8412 28.5829 49.6802 27.9058 48.0892 27.8931C46.4982 27.8821 45.1376 28.1993 44.9766 28.6192C44.8156 29.039 44.6452 30.0208 44.32 30.971C43.9933 31.9212 40.142 40.5028 39.1335 42.7267C38.6189 43.86 38.1722 44.7707 37.8565 45.3926L37.855 45.3895C37.855 45.3895 37.836 45.4305 37.8013 45.5015C37.5314 46.0303 37.3704 46.3239 37.3704 46.3239C37.3704 46.3239 37.372 46.3286 37.3751 46.3349C37.1605 46.7232 36.9316 47.0846 36.818 47.0846C36.7391 47.0846 36.5796 46.0492 36.8527 44.6303C37.4257 41.6534 38.802 37.0098 38.7894 36.8504C38.7831 36.7684 39.0451 35.9602 37.8897 35.5356C36.7675 35.1253 36.3666 35.8103 36.264 35.8119C36.1645 35.8134 36.0903 36.0534 36.0903 36.0534C36.0903 36.0534 37.342 30.8321 33.7038 30.8321C31.431 30.8321 28.2805 33.3196 26.7274 35.5735C25.7488 36.107 23.6527 37.2513 21.4288 38.473C20.5749 38.9418 19.7036 39.4216 18.8766 39.8778C18.8197 39.8162 18.7645 39.7531 18.7061 39.6915C14.2961 34.9864 6.14535 31.6591 6.49102 25.3346C6.61729 23.0349 7.41595 16.9802 22.1548 9.63603C34.2279 3.61925 43.8938 5.27497 45.5638 8.9447C47.9503 14.1865 40.3977 23.9298 27.8607 25.3346C23.0829 25.8697 20.5686 24.0182 19.942 23.3285C19.2838 22.6024 19.1859 22.5693 18.9397 22.7066C18.5388 22.9291 18.7929 23.57 18.9397 23.9519C19.3138 24.9258 20.8495 26.6541 23.4696 27.5127C25.7741 28.2688 31.382 28.6839 38.1659 26.0606C45.7626 23.1217 51.6942 14.9473 49.9532 8.11448C48.1807 1.16488 36.6586 -1.11904 25.7535 2.7543C19.2633 5.06031 12.2379 8.67954 7.1855 13.4036C1.1782 19.0226 0.2217 23.9125 0.616294 25.9549C2.01947 33.2154 12.0248 37.9427 16.0323 41.4467C15.835 41.5556 15.6488 41.6582 15.4799 41.7513C13.4706 42.7457 5.84388 46.7374 3.93562 50.9548C1.77167 55.7389 4.27971 59.1719 5.94174 59.6343C11.0873 61.0659 16.3685 58.49 19.2064 54.2568C22.0444 50.0252 21.6971 44.515 20.395 41.9991C20.3792 41.9675 20.3602 41.9375 20.3444 41.906C20.8637 41.5982 21.3925 41.2873 21.9165 40.9795C22.9393 40.3797 23.9431 39.8194 24.8144 39.3443C24.3267 40.6796 23.97 42.2801 23.7837 44.5924C23.5659 47.3088 24.6787 50.8191 26.1355 52.2002C26.7763 52.8078 27.5482 52.822 28.0375 52.822C29.7326 52.822 30.506 51.4126 31.3568 49.7442C32.4017 47.6986 33.3282 45.3184 33.3282 45.3184C33.3282 45.3184 32.1649 51.7503 35.3343 51.7503C36.4881 51.7503 37.6498 50.2524 38.1675 49.4901C38.1691 49.498 38.1691 49.5027 38.1691 49.5027C38.1691 49.5027 38.1991 49.4538 38.2575 49.3528C38.3774 49.1697 38.4453 49.0529 38.4453 49.0529C38.4453 49.0529 38.4484 49.0403 38.4516 49.0197C38.9156 48.2148 39.9447 46.3775 41.4884 43.347C43.4819 39.4327 45.3949 34.5302 45.3949 34.5302C45.3949 34.5302 45.5732 35.7298 46.1557 37.7107C46.4982 38.8771 47.2274 40.1666 47.8019 41.4025C47.3394 42.0449 47.0553 42.4126 47.0553 42.4126C47.0553 42.4126 47.0585 42.419 47.0632 42.4316C46.6939 42.9225 46.2788 43.4512 45.8447 43.9689C44.2711 45.844 42.396 47.9843 42.145 48.603C41.8498 49.3307 41.9193 49.8673 42.4907 50.2966C42.9074 50.6107 43.6508 50.6597 44.4273 50.6076C45.8416 50.5129 46.8375 50.1609 47.3284 49.9478C48.0939 49.6779 48.9857 49.2518 49.8222 48.6362C51.3659 47.5013 52.2971 45.8772 52.2087 43.7259C52.1598 42.5405 51.781 41.3662 51.3027 40.2566C51.4432 40.0545 51.5837 39.8525 51.7242 39.6457C54.158 36.0865 56.0458 32.1769 56.0458 32.1769C56.0458 32.1769 56.2241 33.3764 56.8066 35.3573C57.1017 36.3611 57.6841 37.455 58.2066 38.5283C55.9179 40.3876 54.499 42.5484 54.0049 43.9658C53.0942 46.5874 53.8076 47.776 55.1461 48.0459C55.7522 48.169 56.6093 47.8912 57.2532 47.6181C58.0551 47.353 59.0179 46.9094 59.9175 46.2481C61.4612 45.1132 62.9464 43.5238 62.8565 41.3725C62.8154 40.3939 62.5503 39.4216 62.1904 38.4872C64.1302 37.6791 66.643 37.2292 69.8424 37.6033C76.7067 38.4051 78.0531 42.6904 77.7958 44.4835C77.5386 46.2781 76.0991 47.263 75.6177 47.5613C75.1363 47.8596 74.9895 47.9622 75.0305 48.1832C75.0889 48.5052 75.3115 48.4926 75.7218 48.4231C76.2869 48.3284 79.3253 46.9647 79.4563 43.6532C79.6204 39.4579 75.5924 34.8412 68.4581 34.879ZM15.5541 52.7147C13.2812 55.1943 10.1039 56.1319 8.74179 55.3427C7.27074 54.4904 7.85316 50.838 10.6437 48.2069C12.3436 46.6032 14.5392 45.1259 15.996 44.2151C16.3275 44.0163 16.8136 43.7227 17.4055 43.3676C17.5034 43.3123 17.5586 43.2807 17.5586 43.2807L17.557 43.2776C17.6707 43.2097 17.789 43.1387 17.909 43.0661C18.9239 46.8132 17.9406 50.112 15.5541 52.7147ZM32.116 41.4546C31.3236 43.3849 29.6663 48.3237 28.6578 48.0585C27.7912 47.8312 27.2641 44.0762 28.4841 40.3828C29.0981 38.5235 30.4098 36.3012 31.1816 35.4378C32.4222 34.0504 33.7891 33.5958 34.1205 34.1593C34.5451 34.8759 32.6132 40.2439 32.116 41.4546ZM45.8005 47.9843C45.4643 48.1595 45.1565 48.27 45.0145 48.1848C44.9087 48.1216 45.1534 47.8912 45.1534 47.8912C45.1534 47.8912 46.8644 46.0492 47.5399 45.2111C47.9313 44.7234 48.3875 44.1441 48.8815 43.497C48.8863 43.5617 48.8878 43.6264 48.8878 43.6895C48.8815 45.8961 46.7507 47.3845 45.8005 47.9843ZM56.3425 45.5804C56.0915 45.4021 56.1342 44.826 56.9565 43.0329C57.2801 42.329 58.0172 41.142 59.3004 40.0088C59.4488 40.4744 59.5403 40.9211 59.5371 41.3378C59.5198 44.1141 57.5389 45.1511 56.3425 45.5804Z" fill="#CF6C9C"/>
</g>
<defs>
<clipPath id="clip0_41_105">
<rect width="80" height="59.4595" fill="white" transform="translate(0 0.726685)"/>
</clipPath>
</defs>
</svg>
