<svg width="80" height="91" viewBox="0 0 80 91" fill="none" xmlns="http://www.w3.org/2000/svg">
<path fill-rule="evenodd" clip-rule="evenodd" d="M37.806 3.0549C39.164 2.2929 40.836 2.2929 42.192 3.0549C48.902 6.8209 69.094 18.1569 75.806 21.9229C77.164 22.6829 78 24.0909 78 25.6149C78 33.1469 78 55.8169 78 63.3489C78 64.8729 77.164 66.2809 75.806 67.0429C69.096 70.8089 48.904 82.1449 42.192 85.9109C40.834 86.6729 39.162 86.6729 37.806 85.9109C31.096 82.1449 10.904 70.8089 4.192 67.0429C2.836 66.2809 2 64.8749 2 63.3509C2 55.8189 2 33.1489 2 25.6169C2 24.0929 2.836 22.6849 4.194 21.9229C10.902 18.1569 31.098 6.8209 37.806 3.0549Z" fill="url(#paint0_linear_41_122)"/>
<path d="M39.974 88.925C37.804 88.925 35.632 88.421 33.644 87.411C29.204 85.157 23.408 81.613 17.802 78.185C13.856 75.773 10.13 73.493 7.208 71.871C2.762 69.399 0 64.709 0 59.627V29.737C0 24.557 2.834 19.827 7.398 17.391C14.864 13.413 26.832 6.92297 33.154 3.37097C37.374 1.00297 42.62 1.00297 46.842 3.37097C53.994 7.38497 67.58 15.499 75.346 20.397C78.26 22.231 80 25.389 80 28.847V60.483C80 65.283 78.282 68.579 74.894 70.273C73.006 71.335 69.638 73.425 65.738 75.847C59.674 79.611 52.126 84.297 46.61 87.257C44.54 88.367 42.256 88.925 39.974 88.925ZM35.112 6.85897C28.768 10.423 16.764 16.935 9.28 20.923C6.024 22.659 4 26.035 4 29.737V59.627C4 63.255 5.974 66.607 9.152 68.373C12.148 70.037 15.908 72.335 19.89 74.771C25.43 78.157 31.158 81.661 35.456 83.843C38.372 85.321 41.832 85.277 44.718 83.731C50.124 80.829 57.612 76.181 63.63 72.445C67.57 69.999 70.972 67.887 73.022 66.737C75.67 65.411 76 62.701 76 60.483V28.847C76 26.773 74.958 24.881 73.216 23.783C65.492 18.913 51.99 10.849 44.886 6.86097C41.826 5.14497 38.172 5.14497 35.112 6.85897Z" fill="#0B132B"/>
<path d="M37.954 79.791L37.84 52.915C37.818 47.727 40.666 42.953 45.242 40.507L69.262 27.675C73.258 25.539 78.09 28.435 78.09 32.967V62.427C78.09 64.509 77.01 66.443 75.238 67.535L47.102 84.871C43.114 87.331 37.974 84.475 37.954 79.791Z" fill="#0B132B"/>
<path d="M49.598 49.0309C49.844 48.9049 50.048 49.0589 50.052 49.3829L50.078 52.0229C51.182 51.5849 52.142 51.4669 53.012 51.6689C53.202 51.7169 53.284 51.9749 53.208 52.2809L52.626 54.6189C52.578 54.7969 52.482 54.9749 52.362 55.0849C52.31 55.1349 52.258 55.1729 52.208 55.1989C52.128 55.2389 52.052 55.2509 51.98 55.2369C51.582 55.1469 50.638 54.9409 49.154 55.6929C47.598 56.4829 47.052 57.8349 47.062 58.8389C47.076 60.0409 47.692 60.4049 49.816 60.4429C52.648 60.4889 53.87 61.7289 53.9 64.5769C53.932 67.3809 52.434 70.3869 50.148 72.2289L50.198 74.8449C50.2 75.1589 49.998 75.5209 49.748 75.6449L48.198 76.5349C47.952 76.6609 47.748 76.5069 47.744 76.1909L47.718 73.6189C46.39 74.1709 45.05 74.3029 44.192 73.9589C44.028 73.8949 43.958 73.6549 44.024 73.3829L44.584 71.0209C44.628 70.8369 44.726 70.6489 44.86 70.5289C44.906 70.4829 44.956 70.4489 45.004 70.4229C45.092 70.3789 45.178 70.3689 45.252 70.3969C46.176 70.7069 47.358 70.5609 48.496 69.9849C49.94 69.2549 50.908 67.7809 50.892 66.3169C50.878 64.9889 50.16 64.4389 48.41 64.4249C46.184 64.4289 44.108 63.9929 44.074 60.7149C44.046 58.0149 45.45 55.2089 47.672 53.4329L47.646 50.7949C47.644 50.4709 47.842 50.1149 48.096 49.9849L49.598 49.0309Z" fill="url(#paint1_linear_41_122)"/>
<path d="M66.452 66.1968L59.044 70.5668C58.826 70.6888 58.556 70.5288 58.556 70.2808V67.7768C58.556 67.5508 58.678 67.3428 58.876 67.2308L66.284 62.8608C66.506 62.7388 66.776 62.8988 66.776 63.1508V65.6469C66.776 65.8769 66.652 66.0848 66.452 66.1968Z" fill="#5BC0BE"/>
<defs>
<linearGradient id="paint0_linear_41_122" x1="63.506" y1="3.7689" x2="14.542" y2="88.5789" gradientUnits="userSpaceOnUse">
<stop stop-color="#F9F9F9"/>
<stop offset="0.26" stop-color="#F0F1F2"/>
<stop offset="0.678" stop-color="#D9DCDF"/>
<stop offset="1" stop-color="#C2C8CC"/>
</linearGradient>
<linearGradient id="paint1_linear_41_122" x1="56.562" y1="49.5829" x2="38.866" y2="80.2349" gradientUnits="userSpaceOnUse">
<stop stop-color="#F9F9F9"/>
<stop offset="0.26" stop-color="#F0F1F2"/>
<stop offset="0.678" stop-color="#D9DCDF"/>
<stop offset="1" stop-color="#C2C8CC"/>
</linearGradient>
</defs>
</svg>
