<svg width="80" height="53" viewBox="0 0 80 53" fill="none" xmlns="http://www.w3.org/2000/svg">
<g clip-path="url(#clip0_41_107)">
<path d="M77.4835 10.5069C75.8783 9.82602 74.0197 10.5004 73.2401 12.0596C72.5033 13.5333 71.5197 14.4379 70.2335 14.8161C68.2204 15.4181 65.8158 14.6451 64.6908 13.9839C63.2072 13.1122 61.4868 11.7898 59.6677 10.3918C53.8618 5.9247 46.6381 0.37207 36.7105 0.37207C28.7697 0.37207 24.6908 4.44773 17.9375 11.2043C16.6513 12.4905 16.6414 14.5826 17.9276 15.8655C19.1776 17.1221 21.1842 17.1615 22.4736 15.9642C22.5065 15.9346 22.5394 15.9017 22.5723 15.8721C24.3881 14.4708 35.8289 15.8326 40.8289 19.8063C48.2598 25.7109 53.625 29.9773 59.7368 29.9773C68.4835 29.9773 75.7862 24.2504 79.2763 14.655C79.8717 13.0168 79.0855 11.1977 77.4835 10.5069ZM61.0362 33.5333C59.4309 32.8523 57.5723 33.5267 56.7927 35.0859C56.0559 36.5596 55.0723 37.4642 53.7861 37.8425C51.773 38.4346 49.3684 37.6714 48.2434 37.0102C46.7598 36.1385 45.0394 34.8161 43.2204 33.4181C37.4144 28.951 30.1908 23.3984 20.2631 23.3984C12.3223 23.3984 8.24338 27.474 1.49009 34.2306C0.20391 35.5168 0.194042 37.6089 1.48023 38.8918C2.73023 40.1484 4.74009 40.1912 6.02957 38.9905C6.06246 38.9609 6.09536 38.928 6.12825 38.8984C7.94075 37.4971 19.3881 38.8589 24.3848 42.8326C31.8125 48.7372 37.1776 53.0037 43.2894 53.0037C52.0361 53.0037 59.3388 47.2767 62.8289 37.6813C63.4243 36.0431 62.6381 34.224 61.0362 33.5333Z" fill="#3EBFF8"/>
</g>
<defs>
<clipPath id="clip0_41_107">
<rect width="80" height="52.6316" fill="white" transform="translate(0 0.37207)"/>
</clipPath>
</defs>
</svg>
