<svg width="80" height="81" viewBox="0 0 80 81" fill="none" xmlns="http://www.w3.org/2000/svg">
<g clip-path="url(#clip0_41_90)">
<path d="M0 40.6522V80.6522H80V0.652222H0V40.6522ZM48.5433 66.0722C48.9033 65.8689 50.2467 65.0922 51.5167 64.3556L53.8167 63.0222L54.3 63.7355C54.9733 64.7622 56.4433 66.1722 57.3333 66.6422C59.8867 67.9889 63.39 67.7989 65.1167 66.2489C65.76 65.7056 66.1633 64.8989 66.1633 63.9989C66.1633 63.9456 66.1633 63.8956 66.16 63.8422V63.8489C66.16 62.9222 66.0433 62.5156 65.56 61.8156C64.94 60.9289 63.67 60.1822 60.0633 58.6156C55.9367 56.8389 54.16 55.7356 52.5333 53.9822C51.5533 52.8689 50.7967 51.5289 50.3567 50.0556L50.3367 49.9822C50.0333 48.8522 49.9567 46.0189 50.1967 44.8789C51.0467 40.8889 54.0567 38.1122 58.4 37.2856C59.81 37.0189 63.0867 37.1189 64.47 37.4622C66.5033 37.9689 68.05 38.8756 69.4733 40.3489C70.21 41.1356 71.3033 42.5689 71.39 42.9156C71.4167 43.0156 67.9367 45.3489 65.83 46.6589C65.7533 46.7089 65.4467 46.3789 65.1067 45.8722C64.0733 44.3722 62.9967 43.7256 61.3467 43.6122C58.92 43.4456 57.36 44.7156 57.3733 46.8356C57.3733 46.8722 57.37 46.9156 57.37 46.9589C57.37 47.4622 57.4967 47.9356 57.72 48.3489L57.7133 48.3322C58.2467 49.4356 59.24 50.0989 62.3467 51.4422C68.0767 53.9089 70.5267 55.5322 72.05 57.8422C73.75 60.4189 74.1333 64.5356 72.9767 67.5956C71.71 70.9222 68.56 73.1822 64.1267 73.9289C62.7567 74.1722 59.5067 74.1356 58.0333 73.8689C54.82 73.2956 51.7733 71.7089 49.8933 69.6255C49.1567 68.8156 47.72 66.6922 47.81 66.5422C47.8467 66.4889 48.1767 66.2856 48.5433 66.0722ZM17.5267 40.8689C17.5267 39.0889 17.5633 37.6022 17.6133 37.5689C17.6533 37.5156 23.99 37.4889 31.67 37.5022L45.6533 37.5422L45.69 40.8056L45.7167 44.0822H35.3V73.6689H27.9333V44.0822H17.5267V40.8689Z" fill="#2F74C0"/>
</g>
<defs>
<clipPath id="clip0_41_90">
<rect width="80" height="80" fill="white" transform="translate(0 0.652222)"/>
</clipPath>
</defs>
</svg>
