<svg width="80" height="69" viewBox="0 0 80 69" fill="none" xmlns="http://www.w3.org/2000/svg">
<g clip-path="url(#clip0_144_73)">
<path d="M39.9752 17.3135L30.2724 0.690654C30.0857 0.368749 29.7409 0.170654 29.3676 0.170654H1.77331C0.965687 0.170654 0.46283 1.04684 0.870449 1.74589L39.0724 67.1935C39.4762 67.8849 40.4762 67.8849 40.88 67.1935L79.0819 1.74589C79.4876 1.04684 78.9847 0.170654 78.1771 0.170654H50.5828C50.2114 0.170654 49.8666 0.368749 49.6781 0.690654L39.9752 17.3135Z" fill="url(#paint0_linear_144_73)"/>
<path d="M49.9809 0.170654L39.9752 17.3135L29.9695 0.170654H15.5162L39.9752 42.0754L64.4343 0.170654H49.9809Z" fill="url(#paint1_linear_144_73)"/>
<path opacity="0.05" d="M65.2572 0.650654L40.7981 42.5554L39.9752 43.9649L39.1524 42.5554L14.6933 0.650654L14.4133 0.170654H13.3105L13.8705 1.13065L38.3295 43.0354L39.9752 45.8545L41.621 43.0354L66.08 1.13065L66.64 0.170654H65.5372L65.2572 0.650654Z" fill="black"/>
<path opacity="0.07" d="M64.4343 0.170654L39.9752 42.0754L15.5162 0.170654H14.4133L14.6933 0.650654L39.1524 42.5554L39.9752 43.9649L40.7981 42.5554L65.2571 0.650654L65.5371 0.170654H64.4438H64.4343Z" fill="black"/>
</g>
<defs>
<linearGradient id="paint0_linear_144_73" x1="0.725687" y1="33.9421" x2="79.2247" y2="33.9421" gradientUnits="userSpaceOnUse">
<stop stop-color="#33C481"/>
<stop offset="1" stop-color="#21A366"/>
</linearGradient>
<linearGradient id="paint1_linear_144_73" x1="15.5162" y1="21.123" x2="64.4343" y2="21.123" gradientUnits="userSpaceOnUse">
<stop offset="0.189" stop-color="#313437"/>
<stop offset="1" stop-color="#45494D"/>
</linearGradient>
<clipPath id="clip0_144_73">
<rect width="80" height="68.5714" fill="white" transform="translate(0 0.170654)"/>
</clipPath>
</defs>
</svg>
