<svg width="80" height="81" viewBox="0 0 80 81" fill="none" xmlns="http://www.w3.org/2000/svg">
<g clip-path="url(#clip0_41_109)">
<path d="M39.9999 0.838623C29.4856 0.838623 19.402 5.01541 11.9672 12.4501C4.5325 19.8849 0.355713 29.9685 0.355713 40.4829C0.355713 50.9972 4.5325 61.0808 11.9672 68.5156C19.402 75.9503 29.4856 80.1271 39.9999 80.1271C50.5142 80.1271 60.5979 75.9503 68.0326 68.5156C75.4674 61.0808 79.6442 50.9972 79.6442 40.4829C79.6442 29.9685 75.4674 19.8849 68.0326 12.4501C60.5979 5.01541 50.5142 0.838623 39.9999 0.838623Z" fill="white"/>
<path d="M8.20715 40.4829C8.20715 53.0736 15.52 63.9435 26.1275 69.0982L10.9574 27.5423C9.19478 31.4988 8.20715 35.8647 8.20715 40.4829ZM61.4695 38.8812C61.4695 34.9525 59.3572 32.2241 58.1509 30.1138C56.5354 27.4728 55.0191 25.271 55.0191 22.6579C55.0191 19.7466 57.9423 17.0143 61.0622 17.0143C61.2032 17.0143 61.3304 17.0262 61.4715 17.0302C55.82 11.8357 48.2826 8.68799 40.002 8.68799C29.2931 8.68799 19.8262 13.9858 14.0654 22.0995C14.5184 22.2465 14.6754 22.177 15.2795 22.177C18.5961 22.177 23.7529 21.7795 23.7529 21.7795C25.4618 21.6663 25.6705 24.188 23.9496 24.3947C23.9496 24.3947 22.2327 24.6033 20.317 24.6967L32.103 60.0248L39.0581 39.1574L33.8855 24.7543C32.1745 24.6629 30.549 24.4523 30.549 24.4523C28.8361 24.341 29.0348 21.7199 30.7438 21.8372C30.7438 21.8372 36.0058 22.2346 39.1237 22.2346C42.4522 22.2346 47.597 21.8372 47.597 21.8372C49.308 21.7239 49.5147 24.2456 47.8037 24.4523C47.8037 24.4523 46.0748 24.6609 44.1632 24.7543L55.8697 59.7486L59.0472 49.1648C60.6647 45.0315 61.4695 41.6136 61.4695 38.8812ZM40.5584 43.257L31.02 70.9821C33.8736 71.8286 36.8822 72.2777 40.002 72.2777C43.7002 72.2777 47.2532 71.6339 50.5659 70.4754C50.4864 70.3343 50.397 70.1912 50.3314 70.0382L40.5584 43.257ZM67.906 25.2174C68.0471 26.2308 68.1206 27.3218 68.1206 28.4863C68.1206 31.7214 67.5125 35.344 65.6982 39.8867L55.9909 67.9755C65.4459 62.467 71.7949 52.2112 71.7949 40.4829C71.7949 34.9565 70.382 29.76 67.906 25.2174Z" fill="#28799E"/>
<path d="M0.25647 40.483C0.25647 62.3896 18.0815 80.2266 39.9981 80.2266C61.9187 80.2266 79.7437 62.3896 79.7437 40.483C79.7437 18.5763 61.9186 0.73938 40.0001 0.73938C18.0815 0.73938 0.25647 18.5763 0.25647 40.483ZM4.22089 40.483C4.22089 20.7622 20.2654 4.71573 39.9981 4.71573C59.7308 4.71573 75.7792 20.7622 75.7792 40.483C75.7792 60.2037 59.7308 76.2542 40.0001 76.2542C20.2713 76.2542 4.22089 60.2037 4.22089 40.483Z" fill="#28799E"/>
</g>
<defs>
<clipPath id="clip0_41_109">
<rect width="80" height="80" fill="white" transform="translate(0 0.48291)"/>
</clipPath>
</defs>
</svg>
